<?xml version="1.0" encoding="UTF-8"?>
<svg width="36px" height="48px" viewBox="0 0 36 48" version="1.1" xmlns="http://www.w3.org/2000/svg"
>
  <!-- Generator: Sketch 49 (51002) - http://www.bohemiancoding.com/sketch -->
  <title>noun_972578_cc</title>
  <desc>Created with Sketch.</desc>
  <defs></defs>
  <g id="Revamp-for-SLTC" stroke="none" stroke-width="1" fill="none" fill-rule="evenodd">
    <g id="posts-types" transform="translate(-1148.000000, -185.000000)" fill="#2D2F32" fill-rule="nonzero">
      <g id="noun_972578_cc" transform="translate(1148.000000, 185.000000)">
        <g id="Group">
          <path
            d="M30.3165714,47.4428571 L4.82628571,47.4428571 C2.16519048,47.4428571 0,45.2525786 0,42.5562429 L0,4.88661429 C0,2.19225536 2.16519048,0 4.82628571,0 L30.3185238,0 C32.979619,0 35.1428571,2.19225536 35.1428571,4.88661429 L35.1428571,42.5582196 C35.1428571,45.2525786 32.979619,47.4428571 30.3165714,47.4428571 Z M4.82628571,1.97678571 C3.24095238,1.97678571 1.95238095,3.28146429 1.95238095,4.88661429 L1.95238095,42.5582196 C1.95238095,44.1613929 3.24095238,45.4660714 4.82628571,45.4660714 L30.3185238,45.4660714 C31.9019048,45.4660714 33.1904762,44.1613929 33.1904762,42.5562429 L33.1904762,4.88661429 C33.1904762,3.28146429 31.9019048,1.97678571 30.3165714,1.97678571 L4.82628571,1.97678571 Z"
            id="Shape"></path>
          <path
            d="M17.1314286,40.6774286 L17.6019048,35.1038571 L13.3333333,31.5495 L18.7161905,30.2785714 L20.7352381,25.0714286 L23.5904762,29.862 L29.1085714,30.1956429 L25.4895238,34.425 L26.8780952,39.8404286 L21.7885714,37.6630714 L17.1314286,40.6774286 Z M17.5238095,32.5407857 L19.5866667,34.2572143 L19.3580952,36.9495 L21.6057143,35.4953571 L24.0647619,36.5464286 L23.392381,33.9312857 L25.1371429,31.8889286 L22.4761905,31.7288571 L21.0971429,29.4165 L20.1219048,31.9313571 L17.5238095,32.5407857 Z"
            id="Shape"></path>
          <rect id="Rectangle-path" x="7.61904762" y="9.64285714" width="19.047619" height="1.92857143"></rect>
          <rect id="Rectangle-path" x="7.61904762" y="15.4285714" width="19.047619" height="1.92857143"></rect>
          <rect id="Rectangle-path" x="7.61904762" y="21.2142857" width="11.4285714" height="1.92857143"></rect>
        </g>
      </g>
    </g>
  </g>
</svg>
