<svg width="66" height="66" viewBox="0 0 66 66" fill="none" xmlns="http://www.w3.org/2000/svg">
    <path d="M38.7877 35.1634C38.2459 35.1634 37.7152 34.9775 37.2882 34.6287C36.7375 34.1787 36.418 33.505 36.418 32.7938V8.00286C36.418 6.6942 37.4789 5.6333 38.7875 5.6333H62.003C63.2485 5.6333 64.4 6.19817 65.1621 7.18327C65.9245 8.16824 66.1824 9.42469 65.87 10.6304L63.1321 21.1929C61.6787 26.7994 57.2884 31.1664 51.6743 32.5895C51.6377 32.5988 51.6009 32.6072 51.5639 32.6147L39.2596 35.116C39.1031 35.1478 38.9449 35.1634 38.7877 35.1634ZM41.1573 10.3724V29.8941L50.562 27.9823C54.4741 26.9706 57.5301 23.918 58.5447 20.0038L61.0413 10.3725H41.1573V10.3724Z" fill="#FFC250"/>
    <path d="M27.2121 35.1634C27.0548 35.1634 26.8969 35.1478 26.74 35.116L14.4356 32.6147C14.3988 32.6072 14.362 32.5987 14.3256 32.5895C8.7113 31.1663 4.32088 26.7994 2.86772 21.1928L0.129749 10.6304C-0.182848 9.42482 0.0749641 8.16837 0.837316 7.1834C1.59954 6.1983 2.75106 5.6333 3.99655 5.6333H27.2121C28.5207 5.6333 29.5816 6.6942 29.5816 8.00286V32.7938C29.5816 33.505 29.2622 34.1787 28.7114 34.6287C28.2847 34.9775 27.7538 35.1634 27.2121 35.1634ZM15.4379 27.9823L24.8426 29.8941V10.3724H4.95871L7.45523 20.0036C8.46973 23.918 11.5257 26.9705 15.4379 27.9823Z" fill="#FFC250"/>
    <path d="M41.1135 53.2358C34.9636 51.2058 30.6772 44.8827 30.4498 37.6068C30.6977 36.4571 30.8274 35.2683 30.8274 34.0561V26.0139H29.099V34.0561C29.099 41.5546 24.1379 48.1485 16.933 50.2262V55.0989H42.6062V53.7286L41.1135 53.2358Z" fill="#FFD064"/>
    <path d="M47.5737 49.7958C41.2529 47.9731 36.9005 42.1883 36.9005 35.6098V26.0139H29.0989V34.0561C29.0989 35.2685 28.9692 36.4571 28.7213 37.6068C28.9487 44.8827 33.2351 51.2058 39.3849 53.2358L40.8778 53.7286V55.0989H49.0666V50.2262L47.5737 49.7958Z" fill="#FFC250"/>
    <path d="M44.4179 50.1741H14.1361C12.9552 50.1741 11.9978 51.1313 11.9978 52.3124V63.0488H46.556V52.3124C46.5562 51.1313 45.5988 50.1741 44.4179 50.1741Z" fill="#FFE07D"/>
    <path d="M51.8636 50.1741H43.3081C44.489 50.1741 45.4464 51.1315 45.4464 52.3124V63.0488H54.0019V52.3124C54.0018 51.1315 53.0445 50.1741 51.8636 50.1741Z" fill="#FFD064"/>
    <path d="M43.7506 14.906V2.90662H15.2047V14.4908C15.2047 23.9944 20.3496 32.7533 28.6503 37.381C29.2677 37.7254 29.916 37.9909 30.5808 38.1779C38.7333 33.283 43.7506 24.4576 43.7506 14.906Z" fill="#FFE07D"/>
    <path d="M42.2202 2.90662V14.4908C42.2202 23.9944 37.0753 32.7533 28.7745 37.381C28.7538 37.3925 28.7332 37.404 28.7124 37.4153C31.4044 38.8883 34.6662 38.8769 37.3494 37.381C45.65 32.7532 50.7951 23.9944 50.7951 14.4908V2.90662H42.2202Z" fill="#FFD064"/>
    <path d="M50.8243 64.8214V63.4825C50.8243 62.1735 49.7635 61.1122 48.4546 61.1116H10.0774C8.76796 61.1116 7.70642 62.1731 7.70642 63.4825C7.70642 64.792 8.76796 65.8535 10.0774 65.8535H49.7144L50.8243 64.8214Z" fill="#FFD064"/>
    <path d="M55.9225 61.1115H47.3435C48.6529 61.1115 49.7145 62.173 49.7145 63.4824V65.8534H55.9225C57.2319 65.8534 58.2934 64.7919 58.2934 63.4824C58.2934 62.173 57.2319 61.1115 55.9225 61.1115Z" fill="#FFC250"/>
    <path d="M48.4329 2.8166V0.925676L46.5954 0H13.6462C12.0907 0 10.8297 1.26096 10.8297 2.81647C10.8297 4.37198 12.0907 5.63295 13.6462 5.63295H45.6165C47.1719 5.6332 48.4329 4.37211 48.4329 2.8166Z" fill="#FFD064"/>
    <path d="M52.3536 0.00012207H46.5954V2.81659C46.5954 4.37211 45.3343 5.63307 43.7789 5.63307H52.3538C53.9093 5.63307 55.1702 4.37211 55.1702 2.81659C55.1702 1.26108 53.9092 0.00012207 52.3536 0.00012207Z" fill="#FFC250"/>
    <path d="M45.4463 56.8881H20.5535C19.9962 56.8881 19.5446 56.4364 19.5446 55.8792C19.5446 55.3219 19.9962 54.8702 20.5535 54.8702H45.4463C46.0036 54.8702 46.4553 55.3219 46.4553 55.8792C46.4553 56.4364 46.0036 56.8881 45.4463 56.8881Z" fill="#F4FBFF"/>
    <path d="M33.7708 12.5398L35.259 16.6165C35.3735 16.9301 35.6668 17.1432 36.0005 17.1552L40.3375 17.3107C41.1023 17.3382 41.4166 18.3053 40.814 18.7769L37.3967 21.452C37.1337 21.6579 37.0217 22.0025 37.1135 22.3235L38.3057 26.4963C38.516 27.2323 37.6934 27.8299 37.0584 27.4026L33.4582 24.9793C33.1812 24.7927 32.8188 24.7927 32.5418 24.9793L28.9416 27.4026C28.3067 27.8299 27.484 27.2323 27.6943 26.4963L28.8865 22.3235C28.9783 22.0024 28.8663 21.6577 28.6033 21.452L25.186 18.7769C24.5834 18.3051 24.8975 17.3382 25.6625 17.3107L29.9995 17.1552C30.3333 17.1432 30.6264 16.9302 30.741 16.6165L32.2292 12.5398C32.4915 11.8209 33.5083 11.8209 33.7708 12.5398Z" fill="#F4FBFF"/>
</svg>
