<svg width="66" height="66" viewBox="0 0 66 66" fill="none" xmlns="http://www.w3.org/2000/svg">
    <g clip-path="url(#clip0)">
        <path d="M58.3573 20.3592L41.1172 18.7602L34.2689 2.85795C33.7894 1.74445 32.2107 1.74445 31.7313 2.85795L24.883 18.7601L7.64292 20.3592C6.43571 20.4711 5.94793 21.9726 6.85865 22.7727L19.8664 34.1998L16.0596 51.0902C15.793 52.273 17.0704 53.2008 18.1127 52.582L33.0001 43.7421L47.8875 52.582C48.93 53.201 50.2071 52.273 49.9406 51.0902L46.1338 34.1998L59.1416 22.7727C60.0523 21.9726 59.5644 20.4711 58.3573 20.3592Z" fill="#FFDC64"/>
        <path d="M15.3756 2.3103C16.2545 3.53104 18.7352 8.77367 20.1534 11.829C20.3764 12.3093 19.7738 12.7432 19.389 12.3793C16.9415 10.0652 12.7565 6.04949 11.8776 4.82861C11.1822 3.86272 11.4014 2.5159 12.3675 1.82045C13.3334 1.125 14.6802 1.3444 15.3756 2.3103Z" fill="#FFF082"/>
        <path d="M50.6243 2.3103C49.7454 3.53104 47.2647 8.77367 45.8465 11.829C45.6235 12.3093 46.2261 12.7432 46.6109 12.3793C49.0585 10.0652 53.2433 6.04936 54.1223 4.82861C54.8177 3.86272 54.5985 2.5159 53.6324 1.82045C52.6665 1.125 51.3197 1.3444 50.6243 2.3103Z" fill="#FFF082"/>
        <path d="M64.5126 38.1084C63.0825 37.642 57.3339 36.8715 53.9923 36.4487C53.467 36.3822 53.2368 37.0882 53.7002 37.3442C56.6487 38.973 61.746 41.7398 63.1761 42.2062C64.3076 42.5753 65.5241 41.9572 65.8932 40.8255C66.2622 39.6938 65.6441 38.4775 64.5126 38.1084Z" fill="#FFF082"/>
        <path d="M1.48739 38.1084C2.91748 37.642 8.66607 36.8715 12.0077 36.4487C12.533 36.3822 12.7632 37.0882 12.2998 37.3442C9.35134 38.973 4.25398 41.7398 2.8239 42.2062C1.69235 42.5753 0.475864 41.9572 0.106805 40.8255C-0.262254 39.6938 0.355852 38.4775 1.48739 38.1084Z" fill="#FFF082"/>
        <path d="M30.9109 62.4306C30.9109 60.9263 31.9608 55.2222 32.5951 51.9141C32.6947 51.3941 33.4373 51.3941 33.537 51.9141C34.1712 55.2222 35.2211 60.9263 35.2211 62.4306C35.2211 63.6207 34.2563 64.5856 33.0661 64.5856C31.8758 64.5857 30.9109 63.6207 30.9109 62.4306Z" fill="#FFF082"/>
        <path d="M36.7591 8.64069L34.2688 2.85795C33.7893 1.74445 32.2106 1.74445 31.7312 2.85795L24.8829 18.7601L7.64292 20.3592C6.43571 20.4711 5.94793 21.9726 6.85865 22.7727L19.8663 34.1998L16.0596 51.0902C15.793 52.273 17.0704 53.2008 18.1127 52.582L20.0941 51.4054C23.3424 30.3782 32.4744 14.9427 36.7591 8.64069Z" fill="#FFC850"/>
    </g>
    <defs>
        <clipPath id="clip0">
            <rect width="66" height="66" fill="white"/>
        </clipPath>
    </defs>
</svg>
