<svg width="66" height="66" viewBox="0 0 66 66" fill="none" xmlns="http://www.w3.org/2000/svg">
    <path d="M40.5626 50.4626C41.3876 47.7127 43.0376 45.2377 45.2377 43.3126C49.3627 39.875 51.9752 34.6501 51.9752 28.8751C51.9752 18.1501 43.0377 9.35003 32.0377 9.90007C22.2751 10.3126 14.3 18.5626 14.0251 28.325C13.8875 34.3751 16.5001 39.7376 20.7626 43.3126C23.1001 45.2375 24.7501 47.7125 25.5751 50.4626H40.5626Z" fill="#FFD15C"/>
    <path d="M31.2124 50.7375H32.4499L26.9499 30.2501C27.0874 30.2501 27.2249 30.2501 27.3624 30.2501C28.0499 30.2501 28.7374 29.9751 29.2874 29.4251C29.5623 29.1501 29.8374 29.0126 30.2499 29.0126C30.6624 29.0126 30.9374 29.1501 31.2124 29.4251C32.175 30.525 33.825 30.525 34.7874 29.4251C35.0624 29.1501 35.3374 29.0126 35.7499 29.0126C36.0249 29.0126 36.4374 29.1501 36.7125 29.4251C37.2625 29.9751 37.8124 30.2501 38.6374 30.2501C38.775 30.2501 38.9124 30.2501 39.0499 30.2501L33.6874 50.7375H34.9249L40.5624 29.2875C40.5624 29.0126 40.5624 28.7375 40.2874 28.6001C40.0125 28.4625 39.7374 28.6001 39.6 28.7376C39.325 29.0126 39.0499 29.1501 38.775 29.1501C38.3625 29.1501 38.0875 29.0126 37.675 28.7376C37.125 28.1876 36.5751 27.9126 35.8875 27.9126C35.1999 27.9126 34.65 28.1876 34.0999 28.7376C33.5499 29.2876 32.7249 29.2876 32.175 28.7376C31.7625 28.1876 31.075 27.9126 30.3874 27.9126C29.7 27.9126 29.0124 28.1876 28.5999 28.7376C28.3249 29.0126 27.9124 29.1501 27.4999 29.1501C27.225 29.1501 26.8125 29.0126 26.6749 28.7376C26.5374 28.6001 26.2624 28.4626 25.9875 28.6001C25.7125 28.7376 25.575 29.0126 25.7125 29.2875L31.2124 50.7375Z" fill="white"/>
    <path d="M28.7375 63.1124C29.4251 64.7624 31.0751 65.9999 33.0001 65.9999C34.9251 65.9999 36.5751 64.7624 37.2626 63.1124H28.7375Z" fill="#344A5E"/>
    <path d="M38.0876 63.25H28.0501C26.675 63.25 25.5751 62.15 25.5751 60.775V50.325H40.5626V60.775C40.5626 62.1499 39.4625 63.25 38.0876 63.25Z" fill="#344A5E"/>
    <path d="M40.4249 55.5499H25.575C24.75 55.5499 24.0625 54.8625 24.0625 54.0375C24.0625 53.2125 24.75 52.525 25.575 52.525H40.4249C41.2499 52.525 41.9374 53.2125 41.9374 54.0375C41.9374 54.8625 41.2499 55.5499 40.4249 55.5499Z" fill="#415A6B"/>
    <path d="M40.4249 60.3626H25.575C24.75 60.3626 24.0625 59.6751 24.0625 58.8501C24.0625 58.0251 24.75 57.3376 25.575 57.3376H40.4249C41.2499 57.3376 41.9374 58.0251 41.9374 58.8501C41.9374 59.675 41.2499 60.3626 40.4249 60.3626Z" fill="#415A6B"/>
    <path d="M32.9999 0C32.3125 0 31.6249 0.550043 31.6249 1.37504V6.05009C31.6249 6.73754 32.1749 7.42513 32.9999 7.42513C33.8249 7.42513 34.375 6.87509 34.375 6.05009V1.37504C34.375 0.550043 33.6874 0 32.9999 0Z" fill="#FFD15C"/>
    <path d="M14.575 8.38763C14.0249 7.83759 13.1999 7.83759 12.65 8.38763C12.1001 8.93767 12.1 9.76267 12.65 10.3126L15.95 13.6126C16.5001 14.1626 17.3251 14.1626 17.875 13.6126C18.4249 13.0625 18.425 12.2375 17.875 11.6876L14.575 8.38763Z" fill="#FFD15C"/>
    <path d="M10.3125 27.3625H5.63749C4.95004 27.3625 4.26245 27.9126 4.26245 28.7376C4.26245 29.425 4.81249 30.1126 5.63749 30.1126H10.3125C11 30.1126 11.6876 29.5626 11.6876 28.7376C11.6876 28.05 11 27.3625 10.3125 27.3625Z" fill="#FFD15C"/>
    <path d="M15.9501 43.8626L12.6501 47.1626C12.1 47.7126 12.1 48.5376 12.6501 49.0875C13.2001 49.6374 14.0251 49.6376 14.575 49.0875L17.875 45.7875C18.4251 45.2375 18.4251 44.4125 17.875 43.8626C17.325 43.3126 16.5001 43.3125 15.9501 43.8626Z" fill="#FFD15C"/>
    <path d="M50.0501 43.8625C49.5001 43.3124 48.6751 43.3124 48.1251 43.8625C47.575 44.4125 47.575 45.2375 48.1251 45.7874L51.4251 49.0874C51.9751 49.6375 52.8001 49.6375 53.35 49.0874C53.8999 48.5374 53.9001 47.7124 53.35 47.1625L50.0501 43.8625Z" fill="#FFD15C"/>
    <path d="M60.3625 27.3625H55.6874C55 27.3625 54.3124 27.9126 54.3124 28.7376C54.3124 29.425 54.8624 30.1126 55.6874 30.1126H60.3625C61.0499 30.1126 61.7375 29.5626 61.7375 28.7376C61.7374 28.05 61.1875 27.3625 60.3625 27.3625Z" fill="#FFD15C"/>
    <path d="M51.4251 8.38746L48.1251 11.6875C47.575 12.2375 47.575 13.0625 48.1251 13.6124C48.6751 14.1625 49.5001 14.1625 50.05 13.6124L53.35 10.3124C53.9 9.76237 53.9 8.93737 53.35 8.38746C52.8 7.83755 51.9751 7.83742 51.4251 8.38746Z" fill="#FFD15C"/>
</svg>
