<svg width="200px" height="200px" xmlns="http://www.w3.org/2000/svg" viewBox="0 0 100 100"
     preserveAspectRatio="xMidYMid" class="lds-stripe" style="background: none;">
  <defs>
    <pattern ng-attr-id="{{config.patid}}" patternUnits="userSpaceOnUse" x="0" y="0" width="100" height="100"
             id="lds-stripe-patid-e7f9071eed679">
      <g transform="translate(20.2222 0)">
        <g transform="rotate(20 50 50) scale(1.2)">
          <rect x="-20" y="-10" width="10" height="120" ng-attr-fill="{{config.c1}}" fill="#1565c0"></rect>
          <rect x="-10" y="-10" width="10" height="120" ng-attr-fill="{{config.c2}}"
                fill="rgba(100%,100%,100%,0)"></rect>
          <rect x="0" y="-10" width="10" height="120" ng-attr-fill="{{config.c1}}" fill="#1565c0"></rect>
          <rect x="10" y="-10" width="10" height="120" ng-attr-fill="{{config.c2}}"
                fill="rgba(100%,100%,100%,0)"></rect>
          <rect x="20" y="-10" width="10" height="120" ng-attr-fill="{{config.c1}}" fill="#1565c0"></rect>
          <rect x="30" y="-10" width="10" height="120" ng-attr-fill="{{config.c2}}"
                fill="rgba(100%,100%,100%,0)"></rect>
          <rect x="40" y="-10" width="10" height="120" ng-attr-fill="{{config.c1}}" fill="#1565c0"></rect>
          <rect x="50" y="-10" width="10" height="120" ng-attr-fill="{{config.c2}}"
                fill="rgba(100%,100%,100%,0)"></rect>
          <rect x="60" y="-10" width="10" height="120" ng-attr-fill="{{config.c1}}" fill="#1565c0"></rect>
          <rect x="70" y="-10" width="10" height="120" ng-attr-fill="{{config.c2}}"
                fill="rgba(100%,100%,100%,0)"></rect>
          <rect x="80" y="-10" width="10" height="120" ng-attr-fill="{{config.c1}}" fill="#1565c0"></rect>
          <rect x="90" y="-10" width="10" height="120" ng-attr-fill="{{config.c2}}"
                fill="rgba(100%,100%,100%,0)"></rect>
          <rect x="100" y="-10" width="10" height="120" ng-attr-fill="{{config.c1}}" fill="#1565c0"></rect>
          <rect x="110" y="-10" width="10" height="120" ng-attr-fill="{{config.c1}}" fill="#1565c0"></rect>
        </g>
        <animateTransform attributeName="transform" type="translate" values="0 0;26 0" keyTimes="0;1"
                          ng-attr-dur="{{config.speed}}s" repeatCount="indefinite" dur="0.6s"></animateTransform>
      </g>
    </pattern>
  </defs>
  <rect ng-attr-rx="{{config.r}}" ng-attr-ry="{{config.r}}" ng-attr-x="{{config.x}}" ng-attr-y="{{config.y}}"
        ng-attr-stroke="{{config.stroke}}" ng-attr-stroke-width="{{config.strokeWidth}}"
        ng-attr-width="{{config.width}}" ng-attr-height="{{config.height}}" ng-attr-fill="url(#{{config.patid}})" rx="1"
        ry="1" x="-50" y="49" stroke="#ffffff" stroke-width="0" width="200" height="2"
        fill="url(#lds-stripe-patid-e7f9071eed679)"></rect>
</svg>
