<svg class="ldi-195rep" width="200px" height="200px" xmlns="http://www.w3.org/2000/svg"
     viewBox="0 0 100 100" preserveAspectRatio="xMidYMid"
     style="background: none;"><!--?xml version="1.0" encoding="utf-8"?--><!--Generator: Adobe Illustrator 21.0.0, SVG Export Plug-In . SVG Version: 6.00 Build 0)-->
  <svg version="1.1" id="圖層_1" xmlns="http://www.w3.org/2000/svg" x="0px" y="0px" viewBox="0 0 100 100"
       style="transform-origin: 50px 50px 0px;" xml:space="preserve"><g style="transform-origin: 50px 50px 0px; transform: scale(1);"><g style="transform-origin: 50px 50px 0px;"><style type="text/css" class="ld ld-breath" style="transform-origin: 50px 50px 0px; animation-duration: 1s; animation-delay: -1s;">.st0{fill:#C7B299;stroke:#333333;stroke-width:6;stroke-miterlimit:10;} .st1{fill:#F5E169;} .st2{fill:#666666;} .st3{fill:#F5E6C8;} .st4{fill:#333333;} .st5{fill:#E0E0E0;} .st6{fill:#F8B26A;} .st7{fill:#FFFFFF;stroke:#000000;stroke-width:4;stroke-miterlimit:10;} .st8{fill:#F47E60;} .st9{fill:#ABBD81;} .st10{fill:#E15B64;} .st11{fill:#666666;stroke:#221E1F;stroke-width:4.5;stroke-linejoin:round;stroke-miterlimit:10;} .st12{fill:#FFFFFF;stroke:#221E1F;stroke-width:6;stroke-linejoin:round;stroke-miterlimit:10;} .st13{fill:#77A4BD;} .st14{fill:#FFDC6C;} .st15{fill:#FFFFFF;} .st16{fill:#353035;} .st17{fill:#E0E0E0;stroke:#000000;stroke-width:6;stroke-miterlimit:10;} .st18{fill:none;stroke:#000000;stroke-width:5;stroke-linecap:round;stroke-miterlimit:10;} .st19{fill:none;stroke:#000000;stroke-width:5;stroke-miterlimit:10;} .st20{fill:none;} .st21{fill:#666666;stroke:#221E1F;stroke-width:6;stroke-linejoin:round;stroke-miterlimit:10;} .st22{fill:#FFFFFF;stroke:#221E1F;stroke-width:4.5;stroke-linejoin:round;stroke-miterlimit:10;} .st23{fill:#333333;stroke:#221E1F;stroke-width:4.5;stroke-linejoin:round;stroke-miterlimit:10;} .st24{fill:#1BD112;} .st25{fill:#FFFFFF;stroke:#333333;stroke-width:8;stroke-miterlimit:10;} .st26{fill:none;stroke:#666666;stroke-width:8;stroke-miterlimit:10;} .st27{fill:#FFFFFF;stroke:#333333;stroke-miterlimit:10;} .st28{fill:none;stroke:#333333;stroke-miterlimit:10;} .st29{stroke:#333333;stroke-miterlimit:10;} .st30{fill:none;stroke:#000000;stroke-width:4;stroke-linecap:round;stroke-miterlimit:10;} .st31{fill:none;stroke:#000000;stroke-width:6;stroke-miterlimit:10;} .st32{fill:#C33737;} .st33{fill:#849B87;} .st34{fill:#66503A;} .st35{fill:none;stroke:#333333;stroke-width:6;stroke-miterlimit:10;} .st36{fill:none;stroke:#333333;stroke-width:4;stroke-miterlimit:10;} .st37{fill:#C59B6D;} .st38{fill:#E0E0E0;stroke:#221E1F;stroke-width:4.5;stroke-linejoin:round;stroke-miterlimit:10;} .st39{fill:#666666;stroke:#000000;stroke-width:3;stroke-miterlimit:10;} .st40{fill:#F5E6C8;stroke:#000000;stroke-width:3;stroke-miterlimit:10;} .st41{fill:#FFFFFF;stroke:#808080;stroke-width:4;stroke-miterlimit:10;} .st42{fill:#808080;stroke:#808080;stroke-width:4;stroke-miterlimit:10;} .st43{fill:#666666;stroke:#B3B3B3;stroke-width:12;stroke-linecap:round;stroke-miterlimit:10;} .st44{fill:#808080;} .st45{fill:#B3B3B3;} .st46{fill:#FFFF00;stroke:#E15B64;stroke-width:6;stroke-linecap:round;stroke-linejoin:round;stroke-miterlimit:10;} .st47{fill:none;stroke:#E15B64;stroke-width:6;stroke-linecap:round;stroke-linejoin:round;stroke-miterlimit:10;} .st48{fill:#F5E6C8;stroke:#333333;stroke-width:4;stroke-miterlimit:10;}</style><g
    class="ld ld-breath" style="transform-origin: 50px 50px 0px; animation-duration: 1s; animation-delay: -0.928571s;"><polygon class="st5" points="88.1,15 27.4,55.8 11.9,47.3 " fill="#ffffff" style="fill: rgb(255, 255, 255);"></polygon></g><g
    class="ld ld-breath" style="transform-origin: 50px 50px 0px; animation-duration: 1s; animation-delay: -0.857143s;"><polygon class="st5" points="88.1,15 71.2,80.1 51.5,69.1 39.4,85 39.4,62.5 " fill="#ffffff" style="fill: rgb(255, 255, 255);"></polygon></g><g
    class="ld ld-breath" style="transform-origin: 50px 50px 0px; animation-duration: 1s; animation-delay: -0.785714s;"><path class="st2" d="M29.8,56.5l7.7,18.7V62.5c0-0.5,0.2-1,0.6-1.4l33.4-32.6L29.8,56.5z" fill="#1565c0" style="fill: rgb(21, 101, 192);"></path></g><g
    class="ld ld-breath" style="transform-origin: 50px 50px 0px; animation-duration: 1s; animation-delay: -0.714286s;"><path d="M90,14.8c0-0.2-0.1-0.4-0.1-0.5c0,0,0-0.1,0-0.1c0,0,0-0.1-0.1-0.1c-0.1-0.1-0.1-0.2-0.2-0.3c0,0,0,0,0,0 c-0.1-0.1-0.3-0.3-0.4-0.4c0,0,0,0,0,0c0,0,0,0,0,0c-0.2-0.1-0.4-0.2-0.5-0.2c0,0,0,0-0.1,0c-0.2,0-0.4,0-0.5,0c0,0-0.1,0-0.1,0 c-0.2,0-0.3,0.1-0.5,0.1L11.2,45.5c-0.7,0.3-1.1,0.9-1.2,1.7s0.3,1.4,1,1.8l14.8,8.2l11.8,28.5l0,0c0.2,0.5,0.6,0.9,1.2,1.1 c0.2,0.1,0.4,0.1,0.6,0.1c0.6,0,1.2-0.3,1.5-0.8l11-14.5l18.3,10.1c0.5,0.3,1.2,0.3,1.7,0.1c0.6-0.2,1-0.7,1.1-1.3l16.9-65 c0,0,0,0,0,0C90,15.3,90,15.1,90,14.8C90,14.9,90,14.9,90,14.8z M16.4,47.5l53.8-22.8L27.3,53.5L16.4,47.5z M38.1,61.1 c-0.4,0.4-0.6,0.9-0.6,1.4v12.7l-7.7-18.7l41.7-28L38.1,61.1z M41.4,65.8l7.2,4l-7.2,9.5V65.8z M70,77.1l-17.6-9.7L42.7,62 l41.8-40.8L70,77.1z" fill="#333333" style="fill: rgb(51, 51, 51);"></path></g><metadata
    xmlns:d="https://loading.io/stock/" class="ld ld-breath"
    style="transform-origin: 50px 50px 0px; animation-duration: 1s; animation-delay: -0.642857s;">
<d:name class="ld ld-breath"
        style="transform-origin: 50px 50px 0px; animation-duration: 1s; animation-delay: -0.571429s;">paper plane</d:name>
    <d:tags class="ld ld-breath"
            style="transform-origin: 50px 50px 0px; animation-duration: 1s; animation-delay: -0.5s;">fly,send,fire,take off,aviation,paper plane,web application</d:tags>
    <d:license class="ld ld-breath"
               style="transform-origin: 50px 50px 0px; animation-duration: 1s; animation-delay: -0.428571s;">cc-by</d:license>
    <d:slug class="ld ld-breath"
            style="transform-origin: 50px 50px 0px; animation-duration: 1s; animation-delay: -0.357143s;">195rep</d:slug>
</metadata></g></g>
    <style type="text/css" class="ld ld-breath"
           style="transform-origin: 50px 50px 0px; animation-duration: 1s; animation-delay: -0.285714s;">path,ellipse,circle,rect,polygon,polyline,line { stroke-width: 0; }@keyframes ld-breath {
  0% {
    -webkit-transform: scale(0.86);
    transform: scale(0.86);
  }
  50% {
    -webkit-transform: scale(1.06);
    transform: scale(1.06);
  }
  100% {
    -webkit-transform: scale(0.86);
    transform: scale(0.86);
  }
}
@-webkit-keyframes ld-breath {
  0% {
    -webkit-transform: scale(0.86);
    transform: scale(0.86);
  }
  50% {
    -webkit-transform: scale(1.06);
    transform: scale(1.06);
  }
  100% {
    -webkit-transform: scale(0.86);
    transform: scale(0.86);
  }
}
.ld.ld-breath {
  -webkit-animation: ld-breath 1s infinite;
  animation: ld-breath 1s infinite;
}
</style></svg>
</svg>
