<svg class="ldi-uk6qc" width="200px" height="200px" xmlns="http://www.w3.org/2000/svg"
     viewBox="0 0 100 100" preserveAspectRatio="xMidYMid"
     style="background: none;"><!--?xml version="1.0" encoding="utf-8"?--><!--Generator: Adobe Illustrator 21.0.0, SVG Export Plug-In . SVG Version: 6.00 Build 0)-->
  <svg version="1.1" id="Layer_1" xmlns="http://www.w3.org/2000/svg" x="0px" y="0px" viewBox="0 0 100 100"
       style="transform-origin: 50px 50px 0px;" xml:space="preserve"><g style="transform-origin: 50px 50px 0px; transform: scale(1);"><g style="transform-origin: 50px 50px 0px;"><style type="text/css" class="ld ld-breath" style="transform-origin: 50px 50px 0px; animation-duration: 1s; animation-delay: -1s;">.st0{fill:#333}.st1,.st2{stroke-width:3.5;stroke-miterlimit:10}.st1{fill:url(#SVGID_1_);stroke:#333}.st2{opacity:.5;stroke:#000}.st3{fill:#666766;stroke:#333}.st3,.st4,.st5{stroke-width:3.5;stroke-miterlimit:10}.st4{opacity:.5;stroke-linejoin:round;stroke:#000}.st5{fill:none;stroke:#333;stroke-linecap:round}.st6{opacity:.5}.st7,.st8{stroke:#333;stroke-width:3.5}.st7{stroke-miterlimit:10;fill:none}.st8{fill:#849b87}.st10,.st11,.st8,.st9{stroke-miterlimit:10}.st9{opacity:.2;stroke-width:3.5;stroke-linejoin:round;stroke:#000}.st10,.st11{stroke:#333}.st10{stroke-width:3.5;fill:#e15c64}.st11{fill:#fff}.st11,.st12,.st13{stroke-width:3.5}.st12{opacity:.2;stroke-linecap:round;stroke-linejoin:round;stroke-miterlimit:10;stroke:#000}.st13{fill:#acbd81;stroke:#333}.st13,.st14,.st15,.st16{stroke-miterlimit:10}.st14{fill:#e0e0e0;stroke:#333;stroke-width:5.6375}.st15,.st16{stroke-width:5.638;stroke-linejoin:round}.st15{fill:#f0d848;stroke:#333}.st16{opacity:.2;stroke:#000;stroke-linecap:round}.st17,.st18,.st19{fill:#f4e6c8;stroke:#333;stroke-width:3.5;stroke-miterlimit:10}.st18,.st19{stroke:#fff;stroke-linecap:round}.st19{stroke:#f47e5f}.st20{fill:#acbd81}.st21{fill:#e0e0e0;stroke:#333;stroke-width:3.5;stroke-miterlimit:10}.st22{fill:#b92025}.st23,.st24{fill:none;stroke:#333;stroke-width:9;stroke-linecap:round;stroke-miterlimit:10}.st24{stroke-width:6}.st25{fill:#a0c8d7}.st26{opacity:.2}.st27,.st28{stroke-width:3.5}.st27{opacity:.2;stroke:#000;stroke-miterlimit:10}.st28{fill-rule:evenodd;clip-rule:evenodd;fill:#ffdc6e}.st28,.st29,.st30{stroke:#333;stroke-miterlimit:10}.st29{stroke-linecap:round;fill:none;stroke-width:2.8104}.st30{fill:#fff;stroke-width:3.7002}.st31,.st32{fill-rule:evenodd;clip-rule:evenodd;stroke-width:3.5}.st31{fill:none;stroke-linecap:round;stroke-miterlimit:10;stroke:#fff}.st32{opacity:.2;stroke:#000;stroke-linejoin:round}.st32,.st33,.st34,.st35{stroke-miterlimit:10}.st33{fill:#849b87;stroke:#333;stroke-width:3.7002}.st34,.st35{stroke-width:3.7}.st34{fill:#849b87;stroke-linecap:round;stroke:#fff}.st35{opacity:.2;stroke:#000}.st36{fill:#e0e0e0}.st37{fill:#fff}.st38,.st39{fill:#acbd81;stroke:#333;stroke-width:3.5;stroke-linecap:round;stroke-linejoin:round;stroke-miterlimit:10}.st39{fill:none}.st40{fill:#f4e6c8}.st41{fill:#acbd81;stroke:#fff;stroke-width:3.5;stroke-linecap:round;stroke-linejoin:round;stroke-miterlimit:10}.st42{fill:#67503b}.st43{fill:#a0c8d7;stroke:#333}.st43,.st44,.st45,.st46,.st47,.st48,.st49{stroke-width:3.5;stroke-miterlimit:10}.st44{stroke-linecap:round;fill:#a0c8d7;stroke:#fff}.st45,.st46,.st47,.st48,.st49{fill:#f47e5f;stroke:#333}.st46,.st47,.st48,.st49{fill:none;stroke:#fff;stroke-linecap:round}.st47,.st48,.st49{fill:#e0e0e0;stroke:#333}.st48,.st49{fill:#fff}.st49{fill:#e0e0e0;stroke:#fff}.st50{fill:#fcdc4f}.st51{fill:#407cae}.st52{fill:none}.st53{fill:#fefefe}.st54{fill:none;stroke:#a0c8d7;stroke-width:3.5;stroke-miterlimit:10}.st55,.st56{stroke-linecap:round}.st55{stroke:#fff;stroke-width:2.5;stroke-miterlimit:10;fill:none}.st56{fill:#f4e6c8}.st56,.st57,.st58{stroke:#333;stroke-width:3.5;stroke-miterlimit:10}.st57{stroke-linecap:round;fill:#f47e5f}.st58{fill:#f7b26a}.st59{fill:#849b87}.st60{fill:#e15c64}.st61,.st62,.st63,.st64{fill:none;stroke:#fff;stroke-width:2.1185;stroke-miterlimit:10}.st62,.st63,.st64{stroke-width:2.3545}.st63,.st64{fill:#fff}.st64{fill:#f4e6c8;stroke:#333;stroke-width:5.6375}.st65{fill:#c33837;stroke:#333;stroke-width:5.638;stroke-linecap:round;stroke-linejoin:round}.st65,.st66,.st67,.st68{stroke-miterlimit:10}.st66{opacity:.2;stroke:#000;stroke-linejoin:round;stroke-width:5.638}.st67,.st68{stroke-width:3.5}.st67{fill:#f47e5f;stroke-linecap:round;stroke:#fff}.st68{stroke:#333}.st69{fill:#070404}.st70{fill:#c42026}.st71{fill:#010101}.st72{opacity:.4}.st73{fill:#666766}.st74,.st75,.st76,.st77{fill:none;stroke-miterlimit:10}.st74{stroke:#fff;stroke-linecap:round;stroke-width:3}.st75,.st76,.st77{stroke-width:3.5}.st75{stroke-linejoin:round;stroke:#333}.st76,.st77{stroke:#e0e0e0}.st77{stroke:#e15c64}.st78{fill:none;stroke:#77a4bd}.st78,.st79,.st80{stroke-width:3.5;stroke-miterlimit:10}.st79{stroke-linejoin:round;fill:none;stroke:#f4e6c8}.st80{fill:#acbd81;stroke:#fff;stroke-linecap:round}.st81{stroke:#333434;stroke-linejoin:round}.st81,.st82,.st83{fill:#77a4bd;stroke-width:3.5;stroke-miterlimit:10}.st82{stroke-linejoin:round;stroke:#fff}.st83{stroke:#e0e0e0}.st83,.st84,.st85,.st86{stroke-linejoin:round}.st84{fill:none;stroke-width:3.5;stroke-linecap:round;stroke-miterlimit:10;stroke:#e0e0e0}.st85,.st86{stroke:#333}.st85{stroke-width:3.5;stroke-miterlimit:10;fill:#e0e0e0}.st86{fill:#e15c64}.st86,.st87,.st88,.st89,.st90,.st91{stroke-width:3.5;stroke-miterlimit:10}.st87{fill:#f7b26a;stroke-linecap:round;stroke:#fff}.st88,.st89,.st90,.st91{stroke:#000}.st89,.st90,.st91{fill-rule:evenodd;clip-rule:evenodd;fill:#fff;stroke:#333}.st90,.st91{fill:#e0e0e0}.st91{fill:none;stroke:#fff;stroke-linejoin:round}.st91,.st92,.st93{stroke-linecap:round}.st92{stroke-width:3.5;stroke-linejoin:round;stroke-miterlimit:10;fill:none;stroke:#fff}.st93{fill:#67503b;stroke:#333}.st93,.st94,.st95,.st96{stroke-width:3.5;stroke-miterlimit:10}.st94{stroke-linecap:round;fill:#67503b;stroke:#fff}.st95,.st96{fill:#333;stroke:#333}.st96{fill:url(#SVGID_2_)}.st97{fill:#f47e5f}.st98,.st99{stroke-miterlimit:10}.st98{opacity:.2;stroke-width:3.5;stroke-linecap:round;stroke:#000}.st99{fill:#fff;stroke:#333}.st100{opacity:.3}.st101{stroke:#333;stroke-miterlimit:10}.st102{fill:#e6e6e6}</style><g
    style="transform-origin: 50px 50px 0px;"><g class="ld ld-breath" style="transform-origin: 50px 50px 0px; animation-duration: 1s; animation-delay: -0.947368s;"><path class="st3" d="M41.258,66.254c-0.019-0.478-0.047-0.997-0.077-1.545c-0.32-5.811-1.068-19.417,11.021-22.361 c1.091-0.266,2.063-0.373,2.845-0.46l0.567-0.063c3.978-0.438,6.52-0.776,8.553-2.167c1.729-1.182,2.961-2.876,3.381-4.651 c0.382-1.609,0.209-3.347-0.476-4.768c-0.29-0.602-0.839-1.31-2.883-2.414c-3.204-1.728-7.375-2.461-13.131-2.322l-0.344,0.009 c-3.538,0.089-7.197,0.18-10.072,0.949c-6.112,1.634-8.021,6.255-8.546,9.844l-14.333-2.097 c1.586-10.834,8.74-18.961,19.139-21.741c4.535-1.212,9.271-1.331,13.449-1.436l0.343-0.008c8.387-0.219,14.856,1.078,20.374,4.054 c2.775,1.498,6.731,4.047,9.057,8.879c2.131,4.427,2.671,9.54,1.518,14.397c-1.261,5.315-4.564,10.025-9.299,13.264 c-0.47,0.322-0.952,0.626-1.445,0.911c-2.249,1.301-4.707,2.18-7.24,2.74c-1.163,0.257-2.339,0.45-3.52,0.609 c-0.795,0.107-1.606,0.048-2.348,0.399c-0.695,0.329-1.279,0.893-1.656,1.561c-1.012,1.793-0.599,4.116-0.491,6.076 c0.035,0.63,0.17,1.79,0.191,2.34H41.258z" fill="rgb(102, 103, 102)" stroke="rgb(51, 51, 51)" style="fill: rgb(102, 103, 102); stroke: rgb(51, 51, 51);"></path></g></g><g
    class="ld ld-breath" style="transform-origin: 50px 50px 0px; animation-duration: 1s; animation-delay: -0.894737s;"><path class="st3" d="M58.657,80.236c0,4.84-3.496,8.764-9.562,8.764s-9.562-3.924-9.562-8.764c0-4.84,3.496-8.764,9.562-8.764 S58.657,75.396,58.657,80.236z" fill="rgb(102, 103, 102)" stroke="rgb(51, 51, 51)" style="fill: rgb(102, 103, 102); stroke: rgb(51, 51, 51);"></path></g><g
    class="ld ld-breath" style="transform-origin: 50px 50px 0px; animation-duration: 1s; animation-delay: -0.842105s;"><path class="st12" d="M40.643,26.462c1.764-0.472,3.825-0.687,5.971-0.804c-1.338-0.141-2.788-0.198-4.394-0.153l-0.297,0.009 c-3.054,0.089-6.212,0.18-8.693,0.949c-4.847,1.501-6.628,5.524-7.237,8.951l6.104,0.893C32.622,32.717,34.531,28.096,40.643,26.462 z" fill="rgb(0, 0, 0)" stroke="rgb(0, 0, 0)" style="fill: rgb(0, 0, 0); stroke: rgb(0, 0, 0);"></path></g><g
    class="ld ld-breath" style="transform-origin: 50px 50px 0px; animation-duration: 1s; animation-delay: -0.789474s;"><path class="st12" d="M80.126,23.956c-2.326-4.832-6.282-7.381-9.057-8.879c-5.518-2.976-11.987-4.273-20.374-4.054l-0.343,0.008 c-1.108,0.028-2.257,0.058-3.429,0.108c4.897,0.401,8.968,1.688,12.568,3.938c2.395,1.498,5.81,4.047,7.817,8.879 c1.839,4.427,2.305,9.54,1.31,14.397c-1.088,5.315-3.939,10.025-8.026,13.264c-0.406,0.322-0.822,0.626-1.248,0.911 c-1.941,1.301-4.063,2.18-6.248,2.74c-1.004,0.257-2.019,0.45-3.038,0.609c-0.686,0.107-1.386,0.048-2.026,0.399 c-0.6,0.329-1.104,0.893-1.429,1.561c-0.873,1.793-0.517,4.116-0.424,6.076c0.03,0.63,0.146,1.79,0.165,2.34h9.493 c-0.022-0.55-0.156-1.711-0.191-2.34c-0.109-1.96-0.521-4.283,0.491-6.076c0.377-0.668,0.961-1.232,1.656-1.561 c0.742-0.351,1.553-0.292,2.348-0.399c1.18-0.159,2.357-0.352,3.52-0.609c2.532-0.56,4.991-1.438,7.24-2.74 c0.493-0.285,0.975-0.589,1.445-0.911c4.736-3.239,8.039-7.949,9.299-13.264C82.796,33.496,82.257,28.383,80.126,23.956z" fill="rgb(0, 0, 0)" stroke="rgb(0, 0, 0)" style="fill: rgb(0, 0, 0); stroke: rgb(0, 0, 0);"></path></g><g
    class="ld ld-breath" style="transform-origin: 50px 50px 0px; animation-duration: 1s; animation-delay: -0.736842s;"><path class="st12" d="M49.095,71.473c-1.215,0-2.322,0.164-3.324,0.455c3.45,1.161,5.384,4.439,5.384,8.309 c0,3.87-1.934,7.148-5.384,8.309C46.773,88.836,47.879,89,49.095,89c6.066,0,9.562-3.924,9.562-8.764 C58.657,75.396,55.161,71.473,49.095,71.473z" fill="rgb(0, 0, 0)" stroke="rgb(0, 0, 0)" style="fill: rgb(0, 0, 0); stroke: rgb(0, 0, 0);"></path></g><g
    class="ld ld-breath" style="transform-origin: 50px 50px 0px; animation-duration: 1s; animation-delay: -0.684211s;"><circle class="st37" cx="44.671" cy="75.74" r="2.667" fill="rgb(255, 255, 255)" style="fill: rgb(255, 255, 255);"></circle></g><g
    class="ld ld-breath" style="transform-origin: 50px 50px 0px; animation-duration: 1s; animation-delay: -0.631579s;"><path class="st46" d="M33.842,18.264c-0.162,0.078-0.323,0.158-0.482,0.24" stroke="rgb(255, 255, 255)" style="stroke: rgb(255, 255, 255);"></path></g><g
    class="ld ld-breath" style="transform-origin: 50px 50px 0px; animation-duration: 1s; animation-delay: -0.578947s;"><path class="st46" d="M49.108,15.494c-3.573-0.126-7.058,0.194-10.224,0.98" stroke="rgb(255, 255, 255)" style="stroke: rgb(255, 255, 255);"></path></g><metadata
    xmlns:d="https://loading.io/stock/" class="ld ld-breath"
    style="transform-origin: 50px 50px 0px; animation-duration: 1s; animation-delay: -0.526316s;">
<d:name class="ld ld-breath"
        style="transform-origin: 50px 50px 0px; animation-duration: 1s; animation-delay: -0.473684s;">unknown</d:name>
    <d:tags class="ld ld-breath"
            style="transform-origin: 50px 50px 0px; animation-duration: 1s; animation-delay: -0.421053s;">unknown,undefined,null,empty,question,help,unidentified,pending,blank,secret,hidden</d:tags>
    <d:license class="ld ld-breath"
               style="transform-origin: 50px 50px 0px; animation-duration: 1s; animation-delay: -0.368421s;">cc-by</d:license>
    <d:slug class="ld ld-breath"
            style="transform-origin: 50px 50px 0px; animation-duration: 1s; animation-delay: -0.315789s;">uk6qc</d:slug>
</metadata></g></g>
    <style type="text/css" class="ld ld-breath"
           style="transform-origin: 50px 50px 0px; animation-duration: 1s; animation-delay: -0.263158s;">path,ellipse,circle,rect,polygon,polyline,line { stroke-width: 0; }@keyframes ld-breath {
  0% {
    -webkit-transform: scale(0.86);
    transform: scale(0.86);
  }
  50% {
    -webkit-transform: scale(1.06);
    transform: scale(1.06);
  }
  100% {
    -webkit-transform: scale(0.86);
    transform: scale(0.86);
  }
}
@-webkit-keyframes ld-breath {
  0% {
    -webkit-transform: scale(0.86);
    transform: scale(0.86);
  }
  50% {
    -webkit-transform: scale(1.06);
    transform: scale(1.06);
  }
  100% {
    -webkit-transform: scale(0.86);
    transform: scale(0.86);
  }
}
.ld.ld-breath {
  -webkit-animation: ld-breath 1s infinite;
  animation: ld-breath 1s infinite;
}
</style></svg>
</svg>
