<?xml version="1.0" encoding="UTF-8"?>
<svg width="74px" height="66px" viewBox="0 0 74 66" version="1.1" xmlns="http://www.w3.org/2000/svg"
>
  <!-- Generator: Sketch 48.2 (47327) - http://www.bohemiancoding.com/sketch -->
  <title>noun_44101_cc</title>
  <desc>Created with Sketch.</desc>
  <defs></defs>
  <g id="iPhone-8" stroke="none" stroke-width="1" fill="none" fill-rule="evenodd"
     transform="translate(-151.000000, -243.000000)">
    <g id="Group" transform="translate(52.000000, 243.000000)" fill="#858585" fill-rule="nonzero">
      <g id="noun_44101_cc" transform="translate(99.000000, 0.000000)">
        <path
          d="M8.875,8.75 C7.83946609,8.75 7,7.91053391 7,6.875 C7,5.83946609 7.83946609,5 8.875,5 C9.91053391,5 10.75,5.83946609 10.75,6.875 C10.75,7.91053391 9.91053391,8.75 8.875,8.75 Z M16.375,8.75 C15.3394661,8.75 14.5,7.91053391 14.5,6.875 C14.5,5.83946609 15.3394661,5 16.375,5 C17.4105339,5 18.25,5.83946609 18.25,6.875 C18.25,7.91053391 17.4105339,8.75 16.375,8.75 Z M23.875,8.75 C22.8394661,8.75 22,7.91053391 22,6.875 C22,5.83946609 22.8394661,5 23.875,5 C24.9105339,5 25.75,5.83946609 25.75,6.875 C25.75,7.91053391 24.9105339,8.75 23.875,8.75 Z M27.625,44.374 C26.5894661,44.374 25.75,43.1150247 25.75,41.562 C25.75,40.0089753 26.5894661,38.75 27.625,38.75 C28.6605339,38.75 29.5,40.0089753 29.5,41.562 C29.5,43.1150247 28.6605339,44.374 27.625,44.374 Z M46.375,44.374 C45.3394661,44.374 44.5,43.1150247 44.5,41.562 C44.5,40.0089753 45.3394661,38.75 46.375,38.75 C47.4105339,38.75 48.25,40.0089753 48.25,41.562 C48.25,43.1150247 47.4105339,44.374 46.375,44.374 Z M30.752,55.625 C30.36,55.625 29.991,55.351 29.756,54.885 C29.519,54.418 29.442,53.812 29.548,53.248 C29.599,52.963 30.914,46.25 37,46.25 C43.088,46.25 44.403,52.963 44.454,53.248 C44.559,53.812 44.484,54.418 44.246,54.885 C44.007,55.351 43.641,55.625 43.251,55.625 L30.752,55.625 Z"
          id="Combined-Shape"></path>
        <path
          d="M7,65.938 L67,65.938 C70.618,65.938 73.562,62.994 73.562,59.376 L73.562,6.876 C73.562,3.258 70.618,0.314 67,0.314 L7,0.314 C3.382,0.314 0.438,3.258 0.438,6.876 L0.438,59.376 C0.438,62.993 3.382,65.938 7,65.938 Z M7,2.188 L67,2.188 C69.585,2.188 71.688,4.29 71.688,6.876 L71.688,11.564 L2.312,11.564 L2.312,6.876 C2.312,4.29 4.415,2.188 7,2.188 Z M2.312,13.438 L71.687,13.438 L71.687,59.376 C71.687,61.961 69.585,64.064 66.999,64.064 L7,64.064 C4.415,64.064 2.312,61.962 2.312,59.376 L2.312,13.438 Z"
          id="Shape"></path>
      </g>
    </g>
  </g>
</svg>
