<svg width="139" height="82" viewBox="0 0 139 82" fill="none" xmlns="http://www.w3.org/2000/svg">
<path fill-rule="evenodd" clip-rule="evenodd" d="M7.09091 47.1818C7.09091 44.32 9.41089 42 12.2727 42H65.7273C68.5891 42 70.9091 44.32 70.9091 47.1818V47.1818C70.9091 50.0437 73.2291 52.3636 76.0909 52.3636L78.8182 52.3636C81.68 52.3636 84 54.6836 84 57.5455V57.5455C84 60.4073 81.68 62.7273 78.8182 62.7273H69C66.1382 62.7273 63.8182 65.0473 63.8182 67.9091V67.9091C63.8182 70.7709 61.4982 73.0909 58.6364 73.0909H5.18182C2.31998 73.0909 0 70.7709 0 67.9091V67.9091C0 65.0473 2.31998 62.7273 5.18182 62.7273H15C17.8618 62.7273 20.1818 60.4073 20.1818 57.5455V57.5455C20.1818 54.6836 17.8618 52.3636 15 52.3636L12.2727 52.3636C9.41089 52.3636 7.09091 50.0437 7.09091 47.1818V47.1818Z" fill="#D9D9D9" fill-opacity="0.63"/>
<path fill-rule="evenodd" clip-rule="evenodd" d="M131.909 21.1818C131.909 18.32 129.589 16 126.727 16H73.2727C70.4109 16 68.0909 18.32 68.0909 21.1818V21.1818C68.0909 24.0437 65.7709 26.3636 62.9091 26.3636L60.1818 26.3636C57.32 26.3636 55 28.6836 55 31.5455V31.5455C55 34.4073 57.32 36.7273 60.1818 36.7273H70C72.8618 36.7273 75.1818 39.0473 75.1818 41.9091V41.9091C75.1818 44.7709 77.5018 47.0909 80.3636 47.0909H133.818C136.68 47.0909 139 44.7709 139 41.9091V41.9091C139 39.0473 136.68 36.7273 133.818 36.7273H124C121.138 36.7273 118.818 34.4073 118.818 31.5455V31.5455C118.818 28.6836 121.138 26.3636 124 26.3636L126.727 26.3636C129.589 26.3636 131.909 24.0437 131.909 21.1818V21.1818Z" fill="#D9D9D9" fill-opacity="0.63"/>
<g filter="url(#filter0_d_7697_53159)">
<path d="M37.0157 13.8033V19.2536V62.4204C37.0157 67.3039 41.6667 68.3794 43.9922 68.3068H98.7137C102.376 68.3068 103.001 66.5627 102.856 65.6906V22.5239C102.856 18.338 100.385 17.1462 99.1497 17.0735H74.0781C68.8458 17.0735 68.1917 14.8933 66.0116 11.8412C64.2675 9.3994 61.2153 8.9343 59.9072 9.00697H42.0301C37.6698 9.00697 36.8704 12.2045 37.0157 13.8033Z" fill="#F2F6FB" stroke="#858585" stroke-width="2"/>
<path d="M48.3524 63.2926C47.1316 67.304 44.3555 68.3069 43.1201 68.3069L99.1497 68.3069C101.766 68.3069 102.711 66.9988 102.856 66.3448L112.012 35.8228C112.376 34.7328 113.015 32.1602 112.667 30.5905C112.318 29.0208 109.76 28.7737 108.524 28.8464H62.0873C58.9479 28.8464 57.4364 31.6079 57.073 32.9887C54.6748 41.4185 49.5733 59.2811 48.3524 63.2926Z" fill="#F2F6FB" stroke="#858585" stroke-width="2"/>
<path d="M74.0624 44.5363C74.0624 45.62 73.184 46.4985 72.1003 46.4985C71.0167 46.4985 70.1382 45.62 70.1382 44.5363C70.1382 43.4527 71.0167 42.5742 72.1003 42.5742C73.184 42.5742 74.0624 43.4527 74.0624 44.5363Z" fill="#858585"/>
<rect x="72" y="56" width="20" height="2" fill="#858585"/>
<path d="M93.2475 44.5363C93.2475 45.62 92.369 46.4985 91.2854 46.4985C90.2017 46.4985 89.3232 45.62 89.3232 44.5363C89.3232 43.4527 90.2017 42.5742 91.2854 42.5742C92.369 42.5742 93.2475 43.4527 93.2475 44.5363Z" fill="#858585"/>
</g>
<circle opacity="0.64" cx="25.5" cy="73.5" r="3.5" stroke="#858585" stroke-width="2"/>
<circle opacity="0.64" cx="96.5" cy="5.5" r="2.5" stroke="#858585" stroke-width="2"/>
<g opacity="0.64">
<rect x="23" y="11" width="2" height="10" rx="1" fill="#858585"/>
<rect x="29" y="15" width="2" height="10" rx="1" transform="rotate(90 29 15)" fill="#858585"/>
</g>
<g opacity="0.64">
<rect x="112" y="67" width="2" height="10" rx="1" fill="#858585"/>
<rect x="118" y="71" width="2" height="10" rx="1" transform="rotate(90 118 71)" fill="#858585"/>
</g>
<defs>
<filter id="filter0_d_7697_53159" x="26" y="0.000244141" width="97.7671" height="81.3098" filterUnits="userSpaceOnUse" color-interpolation-filters="sRGB">
<feFlood flood-opacity="0" result="BackgroundImageFix"/>
<feColorMatrix in="SourceAlpha" type="matrix" values="0 0 0 0 0 0 0 0 0 0 0 0 0 0 0 0 0 0 127 0" result="hardAlpha"/>
<feOffset dy="2"/>
<feGaussianBlur stdDeviation="5"/>
<feComposite in2="hardAlpha" operator="out"/>
<feColorMatrix type="matrix" values="0 0 0 0 0 0 0 0 0 0 0 0 0 0 0 0 0 0 0.35 0"/>
<feBlend mode="normal" in2="BackgroundImageFix" result="effect1_dropShadow_7697_53159"/>
<feBlend mode="normal" in="SourceGraphic" in2="effect1_dropShadow_7697_53159" result="shape"/>
</filter>
</defs>
</svg>
