<svg width="139" height="109" viewBox="0 0 139 109" fill="none" xmlns="http://www.w3.org/2000/svg">
<path fill-rule="evenodd" clip-rule="evenodd" d="M7.09091 47.1818C7.09091 44.32 9.41089 42 12.2727 42H65.7273C68.5891 42 70.9091 44.32 70.9091 47.1818V47.1818C70.9091 50.0437 73.2291 52.3636 76.0909 52.3636L78.8182 52.3636C81.68 52.3636 84 54.6836 84 57.5455V57.5455C84 60.4073 81.68 62.7273 78.8182 62.7273H69C66.1382 62.7273 63.8182 65.0473 63.8182 67.9091V67.9091C63.8182 70.7709 61.4982 73.0909 58.6364 73.0909H5.18182C2.31998 73.0909 0 70.7709 0 67.9091V67.9091C0 65.0473 2.31998 62.7273 5.18182 62.7273H15C17.8618 62.7273 20.1818 60.4073 20.1818 57.5455V57.5455C20.1818 54.6836 17.8618 52.3636 15 52.3636L12.2727 52.3636C9.41089 52.3636 7.09091 50.0437 7.09091 47.1818V47.1818Z" fill="#D9D9D9" fill-opacity="0.63"/>
<path fill-rule="evenodd" clip-rule="evenodd" d="M131.909 21.1818C131.909 18.32 129.589 16 126.727 16H73.2727C70.4109 16 68.0909 18.32 68.0909 21.1818V21.1818C68.0909 24.0437 65.7709 26.3636 62.9091 26.3636L60.1818 26.3636C57.32 26.3636 55 28.6836 55 31.5455V31.5455C55 34.4073 57.32 36.7273 60.1818 36.7273H70C72.8618 36.7273 75.1818 39.0473 75.1818 41.9091V41.9091C75.1818 44.7709 77.5018 47.0909 80.3636 47.0909H133.818C136.68 47.0909 139 44.7709 139 41.9091V41.9091C139 39.0473 136.68 36.7273 133.818 36.7273H124C121.138 36.7273 118.818 34.4073 118.818 31.5455V31.5455C118.818 28.6836 121.138 26.3636 124 26.3636L126.727 26.3636C129.589 26.3636 131.909 24.0437 131.909 21.1818V21.1818Z" fill="#D9D9D9" fill-opacity="0.63"/>
<g filter="url(#filter0_d_7699_53212)">
<path d="M37.0157 13.8033V19.2536V62.4204C37.0157 67.3039 41.6667 68.3794 43.9922 68.3068H98.7137C102.376 68.3068 103.001 66.5627 102.856 65.6906V22.5239C102.856 18.338 100.385 17.1462 99.1497 17.0735H74.0781C68.8458 17.0735 68.1917 14.8933 66.0116 11.8412C64.2675 9.3994 61.2153 8.9343 59.9072 9.00697H42.0301C37.6698 9.00697 36.8704 12.2045 37.0157 13.8033Z" fill="#F2F6FB" stroke="#858585" stroke-width="2"/>
<path d="M48.3524 63.2926C47.1316 67.304 44.3555 68.3069 43.1201 68.3069L99.1497 68.3069C101.766 68.3069 102.711 66.9988 102.856 66.3448L112.012 35.8228C112.376 34.7328 113.015 32.1602 112.667 30.5905C112.318 29.0208 109.76 28.7737 108.524 28.8464H62.0873C58.9479 28.8464 57.4364 31.6079 57.073 32.9887C54.6748 41.4185 49.5733 59.2811 48.3524 63.2926Z" fill="#F2F6FB" stroke="#858585" stroke-width="2"/>
<path d="M74.0624 44.5363C74.0624 45.62 73.184 46.4985 72.1003 46.4985C71.0167 46.4985 70.1382 45.62 70.1382 44.5363C70.1382 43.4527 71.0167 42.5742 72.1003 42.5742C73.184 42.5742 74.0624 43.4527 74.0624 44.5363Z" fill="#858585"/>
<rect x="72" y="56" width="20" height="2" fill="#858585"/>
<path d="M93.2475 44.5363C93.2475 45.62 92.369 46.4985 91.2854 46.4985C90.2017 46.4985 89.3232 45.62 89.3232 44.5363C89.3232 43.4527 90.2017 42.5742 91.2854 42.5742C92.369 42.5742 93.2475 43.4527 93.2475 44.5363Z" fill="#858585"/>
</g>
<circle opacity="0.64" cx="25.5" cy="73.5" r="3.5" stroke="#858585" stroke-width="2"/>
<circle opacity="0.64" cx="96.5" cy="5.5" r="2.5" stroke="#858585" stroke-width="2"/>
<g opacity="0.64">
<rect x="23" y="11" width="2" height="10" rx="1" fill="#858585"/>
<rect x="29" y="15" width="2" height="10" rx="1" transform="rotate(90 29 15)" fill="#858585"/>
</g>
<g opacity="0.64">
<rect x="112" y="67" width="2" height="10" rx="1" fill="#858585"/>
<rect x="118" y="71" width="2" height="10" rx="1" transform="rotate(90 118 71)" fill="#858585"/>
</g>
<path d="M24.0703 93.625V105H22.5547L16.8281 96.2266V105H15.3203V93.625H16.8281L22.5781 102.422V93.625H24.0703ZM26.1406 100.867V100.688C26.1406 100.078 26.2292 99.513 26.4062 98.9922C26.5833 98.4661 26.8385 98.0104 27.1719 97.625C27.5052 97.2344 27.9089 96.9323 28.3828 96.7188C28.8568 96.5 29.388 96.3906 29.9766 96.3906C30.5703 96.3906 31.1042 96.5 31.5781 96.7188C32.0573 96.9323 32.4635 97.2344 32.7969 97.625C33.1354 98.0104 33.3932 98.4661 33.5703 98.9922C33.7474 99.513 33.8359 100.078 33.8359 100.688V100.867C33.8359 101.477 33.7474 102.042 33.5703 102.562C33.3932 103.083 33.1354 103.539 32.7969 103.93C32.4635 104.315 32.0599 104.617 31.5859 104.836C31.1172 105.049 30.5859 105.156 29.9922 105.156C29.3984 105.156 28.8646 105.049 28.3906 104.836C27.9167 104.617 27.5104 104.315 27.1719 103.93C26.8385 103.539 26.5833 103.083 26.4062 102.562C26.2292 102.042 26.1406 101.477 26.1406 100.867ZM27.5859 100.688V100.867C27.5859 101.289 27.6354 101.688 27.7344 102.062C27.8333 102.432 27.9818 102.76 28.1797 103.047C28.3828 103.333 28.6354 103.56 28.9375 103.727C29.2396 103.888 29.5911 103.969 29.9922 103.969C30.388 103.969 30.7344 103.888 31.0312 103.727C31.3333 103.56 31.5833 103.333 31.7812 103.047C31.9792 102.76 32.1276 102.432 32.2266 102.062C32.3307 101.688 32.3828 101.289 32.3828 100.867V100.688C32.3828 100.271 32.3307 99.8776 32.2266 99.5078C32.1276 99.1328 31.9766 98.8021 31.7734 98.5156C31.5755 98.224 31.3255 97.9948 31.0234 97.8281C30.7266 97.6615 30.3776 97.5781 29.9766 97.5781C29.5807 97.5781 29.2318 97.6615 28.9297 97.8281C28.6328 97.9948 28.3828 98.224 28.1797 98.5156C27.9818 98.8021 27.8333 99.1328 27.7344 99.5078C27.6354 99.8776 27.5859 100.271 27.5859 100.688ZM42.9141 105H40.5391L40.5547 103.773H42.9141C43.7266 103.773 44.4036 103.604 44.9453 103.266C45.487 102.922 45.8932 102.443 46.1641 101.828C46.4401 101.208 46.5781 100.484 46.5781 99.6562V98.9609C46.5781 98.3099 46.5 97.7318 46.3438 97.2266C46.1875 96.7161 45.9583 96.2865 45.6562 95.9375C45.3542 95.5833 44.9844 95.3151 44.5469 95.1328C44.1146 94.9505 43.6172 94.8594 43.0547 94.8594H40.4922V93.625H43.0547C43.7995 93.625 44.4792 93.75 45.0938 94C45.7083 94.2448 46.237 94.6016 46.6797 95.0703C47.1276 95.5339 47.4714 96.0964 47.7109 96.7578C47.9505 97.4141 48.0703 98.1536 48.0703 98.9766V99.6562C48.0703 100.479 47.9505 101.221 47.7109 101.883C47.4714 102.539 47.125 103.099 46.6719 103.562C46.224 104.026 45.6823 104.383 45.0469 104.633C44.4167 104.878 43.7057 105 42.9141 105ZM41.3438 93.625V105H39.8359V93.625H41.3438ZM55.1016 103.555V99.2031C55.1016 98.8698 55.0339 98.5807 54.8984 98.3359C54.7682 98.0859 54.5703 97.8932 54.3047 97.7578C54.0391 97.6224 53.7109 97.5547 53.3203 97.5547C52.9557 97.5547 52.6354 97.6172 52.3594 97.7422C52.0885 97.8672 51.875 98.0312 51.7188 98.2344C51.5677 98.4375 51.4922 98.6562 51.4922 98.8906H50.0469C50.0469 98.5885 50.125 98.2891 50.2812 97.9922C50.4375 97.6953 50.6615 97.4271 50.9531 97.1875C51.25 96.9427 51.6042 96.75 52.0156 96.6094C52.4323 96.4635 52.8958 96.3906 53.4062 96.3906C54.0208 96.3906 54.5625 96.4948 55.0312 96.7031C55.5052 96.9115 55.875 97.2266 56.1406 97.6484C56.4115 98.0651 56.5469 98.5885 56.5469 99.2188V103.156C56.5469 103.438 56.5703 103.737 56.6172 104.055C56.6693 104.372 56.7448 104.646 56.8438 104.875V105H55.3359C55.263 104.833 55.2057 104.612 55.1641 104.336C55.1224 104.055 55.1016 103.794 55.1016 103.555ZM55.3516 99.875L55.3672 100.891H53.9062C53.4948 100.891 53.1276 100.924 52.8047 100.992C52.4818 101.055 52.2109 101.151 51.9922 101.281C51.7734 101.411 51.6068 101.576 51.4922 101.773C51.3776 101.966 51.3203 102.193 51.3203 102.453C51.3203 102.719 51.3802 102.961 51.5 103.18C51.6198 103.398 51.7995 103.573 52.0391 103.703C52.2839 103.828 52.5833 103.891 52.9375 103.891C53.3802 103.891 53.7708 103.797 54.1094 103.609C54.4479 103.422 54.7161 103.193 54.9141 102.922C55.1172 102.651 55.2266 102.388 55.2422 102.133L55.8594 102.828C55.8229 103.047 55.724 103.289 55.5625 103.555C55.401 103.82 55.1849 104.076 54.9141 104.32C54.6484 104.56 54.3307 104.76 53.9609 104.922C53.5964 105.078 53.1849 105.156 52.7266 105.156C52.1536 105.156 51.651 105.044 51.2188 104.82C50.7917 104.596 50.4583 104.297 50.2188 103.922C49.9844 103.542 49.8672 103.117 49.8672 102.648C49.8672 102.195 49.9557 101.797 50.1328 101.453C50.3099 101.104 50.5651 100.815 50.8984 100.586C51.2318 100.352 51.6328 100.174 52.1016 100.055C52.5703 99.9349 53.0938 99.875 53.6719 99.875H55.3516ZM62.3594 96.5469V97.6562H57.7891V96.5469H62.3594ZM59.3359 94.4922H60.7812V102.906C60.7812 103.193 60.8255 103.409 60.9141 103.555C61.0026 103.701 61.1172 103.797 61.2578 103.844C61.3984 103.891 61.5495 103.914 61.7109 103.914C61.8307 103.914 61.9557 103.904 62.0859 103.883C62.2214 103.857 62.3229 103.836 62.3906 103.82L62.3984 105C62.2839 105.036 62.1328 105.07 61.9453 105.102C61.763 105.138 61.5417 105.156 61.2812 105.156C60.9271 105.156 60.6016 105.086 60.3047 104.945C60.0078 104.805 59.7708 104.57 59.5938 104.242C59.4219 103.909 59.3359 103.461 59.3359 102.898V94.4922ZM69.0391 103.555V99.2031C69.0391 98.8698 68.9714 98.5807 68.8359 98.3359C68.7057 98.0859 68.5078 97.8932 68.2422 97.7578C67.9766 97.6224 67.6484 97.5547 67.2578 97.5547C66.8932 97.5547 66.5729 97.6172 66.2969 97.7422C66.026 97.8672 65.8125 98.0312 65.6562 98.2344C65.5052 98.4375 65.4297 98.6562 65.4297 98.8906H63.9844C63.9844 98.5885 64.0625 98.2891 64.2188 97.9922C64.375 97.6953 64.599 97.4271 64.8906 97.1875C65.1875 96.9427 65.5417 96.75 65.9531 96.6094C66.3698 96.4635 66.8333 96.3906 67.3438 96.3906C67.9583 96.3906 68.5 96.4948 68.9688 96.7031C69.4427 96.9115 69.8125 97.2266 70.0781 97.6484C70.349 98.0651 70.4844 98.5885 70.4844 99.2188V103.156C70.4844 103.438 70.5078 103.737 70.5547 104.055C70.6068 104.372 70.6823 104.646 70.7812 104.875V105H69.2734C69.2005 104.833 69.1432 104.612 69.1016 104.336C69.0599 104.055 69.0391 103.794 69.0391 103.555ZM69.2891 99.875L69.3047 100.891H67.8438C67.4323 100.891 67.0651 100.924 66.7422 100.992C66.4193 101.055 66.1484 101.151 65.9297 101.281C65.7109 101.411 65.5443 101.576 65.4297 101.773C65.3151 101.966 65.2578 102.193 65.2578 102.453C65.2578 102.719 65.3177 102.961 65.4375 103.18C65.5573 103.398 65.737 103.573 65.9766 103.703C66.2214 103.828 66.5208 103.891 66.875 103.891C67.3177 103.891 67.7083 103.797 68.0469 103.609C68.3854 103.422 68.6536 103.193 68.8516 102.922C69.0547 102.651 69.1641 102.388 69.1797 102.133L69.7969 102.828C69.7604 103.047 69.6615 103.289 69.5 103.555C69.3385 103.82 69.1224 104.076 68.8516 104.32C68.5859 104.56 68.2682 104.76 67.8984 104.922C67.5339 105.078 67.1224 105.156 66.6641 105.156C66.0911 105.156 65.5885 105.044 65.1562 104.82C64.7292 104.596 64.3958 104.297 64.1562 103.922C63.9219 103.542 63.8047 103.117 63.8047 102.648C63.8047 102.195 63.8932 101.797 64.0703 101.453C64.2474 101.104 64.5026 100.815 64.8359 100.586C65.1693 100.352 65.5703 100.174 66.0391 100.055C66.5078 99.9349 67.0312 99.875 67.6094 99.875H69.2891ZM78.4531 93.625V105H76.9453V93.625H78.4531ZM83.2188 98.7422V99.9766H78.125V98.7422H83.2188ZM83.9922 93.625V94.8594H78.125V93.625H83.9922ZM85.0156 100.867V100.688C85.0156 100.078 85.1042 99.513 85.2812 98.9922C85.4583 98.4661 85.7135 98.0104 86.0469 97.625C86.3802 97.2344 86.7839 96.9323 87.2578 96.7188C87.7318 96.5 88.263 96.3906 88.8516 96.3906C89.4453 96.3906 89.9792 96.5 90.4531 96.7188C90.9323 96.9323 91.3385 97.2344 91.6719 97.625C92.0104 98.0104 92.2682 98.4661 92.4453 98.9922C92.6224 99.513 92.7109 100.078 92.7109 100.688V100.867C92.7109 101.477 92.6224 102.042 92.4453 102.562C92.2682 103.083 92.0104 103.539 91.6719 103.93C91.3385 104.315 90.9349 104.617 90.4609 104.836C89.9922 105.049 89.4609 105.156 88.8672 105.156C88.2734 105.156 87.7396 105.049 87.2656 104.836C86.7917 104.617 86.3854 104.315 86.0469 103.93C85.7135 103.539 85.4583 103.083 85.2812 102.562C85.1042 102.042 85.0156 101.477 85.0156 100.867ZM86.4609 100.688V100.867C86.4609 101.289 86.5104 101.688 86.6094 102.062C86.7083 102.432 86.8568 102.76 87.0547 103.047C87.2578 103.333 87.5104 103.56 87.8125 103.727C88.1146 103.888 88.4661 103.969 88.8672 103.969C89.263 103.969 89.6094 103.888 89.9062 103.727C90.2083 103.56 90.4583 103.333 90.6562 103.047C90.8542 102.76 91.0026 102.432 91.1016 102.062C91.2057 101.688 91.2578 101.289 91.2578 100.867V100.688C91.2578 100.271 91.2057 99.8776 91.1016 99.5078C91.0026 99.1328 90.8516 98.8021 90.6484 98.5156C90.4505 98.224 90.2005 97.9948 89.8984 97.8281C89.6016 97.6615 89.2526 97.5781 88.8516 97.5781C88.4557 97.5781 88.1068 97.6615 87.8047 97.8281C87.5078 97.9948 87.2578 98.224 87.0547 98.5156C86.8568 98.8021 86.7083 99.1328 86.6094 99.5078C86.5104 99.8776 86.4609 100.271 86.4609 100.688ZM99.6953 103.047V96.5469H101.148V105H99.7656L99.6953 103.047ZM99.9688 101.266L100.57 101.25C100.57 101.812 100.51 102.333 100.391 102.812C100.276 103.286 100.089 103.698 99.8281 104.047C99.5677 104.396 99.2266 104.669 98.8047 104.867C98.3828 105.06 97.8698 105.156 97.2656 105.156C96.8542 105.156 96.4766 105.096 96.1328 104.977C95.7943 104.857 95.5026 104.672 95.2578 104.422C95.013 104.172 94.8229 103.846 94.6875 103.445C94.5573 103.044 94.4922 102.562 94.4922 102V96.5469H95.9375V102.016C95.9375 102.396 95.9792 102.711 96.0625 102.961C96.151 103.206 96.2682 103.401 96.4141 103.547C96.5651 103.688 96.7318 103.786 96.9141 103.844C97.1016 103.901 97.2943 103.93 97.4922 103.93C98.1068 103.93 98.5938 103.812 98.9531 103.578C99.3125 103.339 99.5703 103.018 99.7266 102.617C99.888 102.211 99.9688 101.76 99.9688 101.266ZM104.797 98.3516V105H103.352V96.5469H104.719L104.797 98.3516ZM104.453 100.453L103.852 100.43C103.857 99.8516 103.943 99.3177 104.109 98.8281C104.276 98.3333 104.51 97.9036 104.812 97.5391C105.115 97.1745 105.474 96.8932 105.891 96.6953C106.312 96.4922 106.779 96.3906 107.289 96.3906C107.706 96.3906 108.081 96.4479 108.414 96.5625C108.747 96.6719 109.031 96.849 109.266 97.0938C109.505 97.3385 109.688 97.6562 109.812 98.0469C109.938 98.4323 110 98.9036 110 99.4609V105H108.547V99.4453C108.547 99.0026 108.482 98.6484 108.352 98.3828C108.221 98.112 108.031 97.9167 107.781 97.7969C107.531 97.6719 107.224 97.6094 106.859 97.6094C106.5 97.6094 106.172 97.6849 105.875 97.8359C105.583 97.987 105.331 98.1953 105.117 98.4609C104.909 98.7266 104.745 99.0312 104.625 99.375C104.51 99.7135 104.453 100.073 104.453 100.453ZM117.523 103.359V93H118.977V105H117.648L117.523 103.359ZM111.836 100.867V100.703C111.836 100.057 111.914 99.4714 112.07 98.9453C112.232 98.4141 112.458 97.9583 112.75 97.5781C113.047 97.1979 113.398 96.9062 113.805 96.7031C114.216 96.4948 114.674 96.3906 115.18 96.3906C115.711 96.3906 116.174 96.4844 116.57 96.6719C116.971 96.8542 117.31 97.1224 117.586 97.4766C117.867 97.8255 118.089 98.2474 118.25 98.7422C118.411 99.237 118.523 99.7969 118.586 100.422V101.141C118.529 101.76 118.417 102.318 118.25 102.812C118.089 103.307 117.867 103.729 117.586 104.078C117.31 104.427 116.971 104.695 116.57 104.883C116.169 105.065 115.701 105.156 115.164 105.156C114.669 105.156 114.216 105.049 113.805 104.836C113.398 104.622 113.047 104.323 112.75 103.938C112.458 103.552 112.232 103.099 112.07 102.578C111.914 102.052 111.836 101.482 111.836 100.867ZM113.289 100.703V100.867C113.289 101.289 113.331 101.685 113.414 102.055C113.503 102.424 113.638 102.75 113.82 103.031C114.003 103.312 114.234 103.534 114.516 103.695C114.797 103.852 115.133 103.93 115.523 103.93C116.003 103.93 116.396 103.828 116.703 103.625C117.016 103.422 117.266 103.154 117.453 102.82C117.641 102.487 117.786 102.125 117.891 101.734V99.8516C117.828 99.5651 117.737 99.2891 117.617 99.0234C117.503 98.7526 117.352 98.513 117.164 98.3047C116.982 98.0911 116.755 97.9219 116.484 97.7969C116.219 97.6719 115.904 97.6094 115.539 97.6094C115.143 97.6094 114.802 97.6927 114.516 97.8594C114.234 98.0208 114.003 98.2448 113.82 98.5312C113.638 98.8125 113.503 99.1406 113.414 99.5156C113.331 99.8854 113.289 100.281 113.289 100.703ZM122.945 93.625L122.844 101.789H121.539L121.43 93.625H122.945ZM121.383 104.273C121.383 104.039 121.453 103.841 121.594 103.68C121.74 103.518 121.953 103.438 122.234 103.438C122.51 103.438 122.721 103.518 122.867 103.68C123.018 103.841 123.094 104.039 123.094 104.273C123.094 104.497 123.018 104.69 122.867 104.852C122.721 105.013 122.51 105.094 122.234 105.094C121.953 105.094 121.74 105.013 121.594 104.852C121.453 104.69 121.383 104.497 121.383 104.273Z" fill="#979797"/>
<defs>
<filter id="filter0_d_7699_53212" x="26" y="0.000244141" width="97.7671" height="81.3098" filterUnits="userSpaceOnUse" color-interpolation-filters="sRGB">
<feFlood flood-opacity="0" result="BackgroundImageFix"/>
<feColorMatrix in="SourceAlpha" type="matrix" values="0 0 0 0 0 0 0 0 0 0 0 0 0 0 0 0 0 0 127 0" result="hardAlpha"/>
<feOffset dy="2"/>
<feGaussianBlur stdDeviation="5"/>
<feComposite in2="hardAlpha" operator="out"/>
<feColorMatrix type="matrix" values="0 0 0 0 0 0 0 0 0 0 0 0 0 0 0 0 0 0 0.35 0"/>
<feBlend mode="normal" in2="BackgroundImageFix" result="effect1_dropShadow_7699_53212"/>
<feBlend mode="normal" in="SourceGraphic" in2="effect1_dropShadow_7699_53212" result="shape"/>
</filter>
</defs>
</svg>
