<?xml version="1.0" encoding="UTF-8"?>
<svg width="258px" height="258px" viewBox="0 0 258 258" version="1.1" xmlns="http://www.w3.org/2000/svg"
>
  <!-- Generator: Sketch 48.2 (47327) - http://www.bohemiancoding.com/sketch -->
  <title>test_logo_4 copy</title>
  <desc>Created with Sketch.</desc>
  <defs>
    <linearGradient x1="50%" y1="0%" x2="50%" y2="100%" id="linearGradient-1">
      <stop stop-color="#00A7FF" offset="0%"></stop>
      <stop stop-color="#006EFF" offset="100%"></stop>
    </linearGradient>
  </defs>
  <g id="Desktop-HD-Copy" stroke="none" stroke-width="1" fill="none" fill-rule="evenodd"
     transform="translate(-947.000000, -21.000000)">
    <g id="test_logo_4-copy" transform="translate(947.000000, 21.000000)" fill="url(#linearGradient-1)"
       fill-rule="nonzero">
      <path
        d="M257.850744,123.11952 L257.868312,123.118599 C257.955792,125.068115 258,127.028895 258,129 C258,200.244733 200.244733,258 129,258 C57.7552673,258 0,200.244733 0,129 C0,57.7552673 57.7552673,0 129,0 C155.557916,0 180.241367,8.02553605 200.757417,21.7836717 C200.824502,21.8466972 200.891254,21.9097735 200.957673,21.9729009 C207.645183,26.7833962 212,34.6331371 212,43.5 C212,50.2114065 209.505078,56.3400928 205.39211,61.0091824 C205.398554,61.1092491 205.404757,61.2093758 205.410719,61.3095621 L136.664753,130.055528 L193.079776,182.663388 C186.19925,191.185011 177.526669,198.139995 167.651457,202.926103 L119.5,158.024143 L119.5,212.10256 C108.521049,211.452314 98.180957,208.066168 88.9999897,202.53405 L89,55.4659436 C98.180957,49.9338315 108.521049,46.5476862 119.5,45.8974396 L119.5,104.086767 L179.660461,43.9263066 C173.616571,40.3194791 167.155987,37.3384263 160.368146,35.0725836 C160.368952,35.0701798 160.369758,35.0677761 160.370564,35.0653726 C150.516262,31.7830582 139.966359,30 129,30 C74.3238098,30 30,74.3238098 30,129 C30,183.67619 74.3238098,228 129,228 C183.67619,228 228,183.67619 228,129 C228,127.555486 227.969063,126.118198 227.907814,124.688762 L227.9487,124.68662 C227.94868,124.67643 227.948669,124.666236 227.948669,124.656037 C227.948669,116.371766 234.634468,108.986495 242.918739,108.986495 C250.840091,108.986495 257.299955,115.321919 257.850744,123.11952 Z M233,96 C224.715729,96 218,89.2842712 218,81 C218,72.7157288 224.715729,66 233,66 C241.284271,66 248,72.7157288 248,81 C248,89.2842712 241.284271,96 233,96 Z"
        id="Combined-Shape-Copy"></path>
    </g>
  </g>
</svg>
