<svg width="25" height="24" viewBox="0 0 25 24" fill="none" xmlns="http://www.w3.org/2000/svg">
<path d="M20.285 15.51H15.755C15.4898 15.51 15.2354 15.6154 15.0479 15.8029C14.8604 15.9904 14.755 16.2448 14.755 16.51C14.755 16.7752 14.8604 17.0296 15.0479 17.2171C15.2354 17.4046 15.4898 17.51 15.755 17.51H18.155C17.0519 18.6627 15.6294 19.4593 14.0702 19.7974C12.5109 20.1355 10.8862 19.9996 9.40478 19.4072C7.92334 18.8149 6.65287 17.7931 5.75659 16.4732C4.86031 15.1532 4.37918 13.5955 4.375 12C4.375 11.7348 4.26964 11.4804 4.08211 11.2929C3.89457 11.1054 3.64022 11 3.375 11C3.10978 11 2.85543 11.1054 2.66789 11.2929C2.48036 11.4804 2.375 11.7348 2.375 12C2.38029 13.9528 2.95722 15.8613 4.0346 17.49C5.11199 19.1187 6.64267 20.3964 8.43774 21.1652C10.2328 21.9341 12.2137 22.1605 14.136 21.8166C16.0583 21.4727 17.8378 20.5735 19.255 19.23V21C19.255 21.2652 19.3604 21.5196 19.5479 21.7071C19.7354 21.8946 19.9898 22 20.255 22C20.5202 22 20.7746 21.8946 20.9621 21.7071C21.1496 21.5196 21.255 21.2652 21.255 21V16.5C21.2525 16.2416 21.1502 15.9943 20.9693 15.8097C20.7885 15.6251 20.5433 15.5177 20.285 15.51ZM12.375 2C9.81139 2.00731 7.34849 2.99891 5.495 4.77V3C5.495 2.73478 5.38964 2.48043 5.20211 2.29289C5.01457 2.10536 4.76022 2 4.495 2C4.22978 2 3.97543 2.10536 3.78789 2.29289C3.60036 2.48043 3.495 2.73478 3.495 3V7.5C3.495 7.76522 3.60036 8.01957 3.78789 8.20711C3.97543 8.39464 4.22978 8.5 4.495 8.5H8.995C9.26022 8.5 9.51457 8.39464 9.70211 8.20711C9.88964 8.01957 9.995 7.76522 9.995 7.5C9.995 7.23478 9.88964 6.98043 9.70211 6.79289C9.51457 6.60536 9.26022 6.5 8.995 6.5H6.595C7.69747 5.34787 9.11909 4.5515 10.6774 4.21311C12.2357 3.87472 13.8596 4.00975 15.3406 4.60086C16.8216 5.19198 18.0922 6.21221 18.9892 7.5306C19.8863 8.849 20.3688 10.4054 20.375 12C20.375 12.2652 20.4804 12.5196 20.6679 12.7071C20.8554 12.8946 21.1098 13 21.375 13C21.6402 13 21.8946 12.8946 22.0821 12.7071C22.2696 12.5196 22.375 12.2652 22.375 12C22.375 10.6868 22.1163 9.38642 21.6138 8.17317C21.1112 6.95991 20.3747 5.85752 19.4461 4.92893C18.5175 4.00035 17.4151 3.26375 16.2018 2.7612C14.9886 2.25866 13.6882 2 12.375 2Z" fill="#147AD6"/>
</svg>
