<?xml version="1.0" encoding="UTF-8"?>
<svg width="68px" height="94px" viewBox="0 0 68 94" version="1.1" xmlns="http://www.w3.org/2000/svg"
>
  <!-- Generator: Sketch 46.2 (44496) - http://www.bohemiancoding.com/sketch -->
  <title>badge 002 copy</title>
  <desc>Created with Sketch.</desc>
  <defs></defs>
  <g id="Project-Dashboard" stroke="none" stroke-width="1" fill="none" fill-rule="evenodd">
    <g id="Desktop-Copy-7" transform="translate(-347.000000, -431.000000)">
      <g id="Group-3-Copy-2" transform="translate(161.000000, 418.500000)">
        <g id="badge-002-copy" transform="translate(186.000000, 13.000000)">
          <polyline id="Fill-124" fill="#005EB3"
                    points="25.2663118 23.1243243 2.01081081 82.2691816 20.5486339 75.479472 29.527727 93 52.7837838 33.8551427 25.2663118 23.1243243"></polyline>
          <polyline id="Fill-125" fill="#0072D9"
                    points="43.1012558 23.1243243 66.3567568 82.2691816 47.8189336 75.479472 38.8398405 93 15.5837838 33.8551427 43.1012558 23.1243243"></polyline>
          <path
            d="M34.3724514,67.8648649 C3.37744513,57.5977205 5.56312129,18.271288 5.56312129,18.271288 C18.0372529,5.69759503 34.1837838,4.02162162 34.1837838,4.02162162 C34.1837838,4.02162162 50.3303147,5.69759503 62.8044463,18.271288 C62.8044463,18.271288 64.9901224,57.5977205 33.9951161,67.8648649 L34.3724514,67.8648649"
            id="Fill-126" fill="#FFD34D"></path>
          <path
            d="M12.8478283,22.038687 C13.0628619,29.9393261 15.4005211,52.9015597 34.690366,60.8695934 C43.9900153,57.0452245 50.4665173,49.3777045 53.9458497,38.0692174 C55.9487659,31.5590068 56.4292662,25.4487447 56.5245904,22.038687 C47.6871525,14.4009974 37.2164567,12.2664659 34.6726312,11.8444209 C32.1432153,12.2515507 21.7390247,14.3319455 12.8478283,22.038687 Z M34.6881491,63.8432432 L34.1804925,63.643269 C12.2692328,55.0250429 10.1815224,29.1687072 10.0634756,21.4487078 L10.0540541,20.8206119 L10.522916,20.4002241 C20.1262726,11.8035422 31.2792014,9.562947 34.4675734,9.08068872 L34.6787275,9.04864865 L34.8898817,9.08179355 C38.0993137,9.58338635 49.3109887,11.8814327 58.8483943,20.3985669 L59.3189189,20.8189547 L59.3094973,21.4492602 C59.2546305,24.842193 58.828997,31.6175628 56.5944209,38.8790577 C52.792538,51.2365809 45.5933458,59.5686561 35.19636,63.6438214 L34.6881491,63.8432432 L34.6881491,63.8432432 Z"
            id="Fill-127" fill="#F2BA49"></path>
          <path
            d="M33.6810811,18.7247951 C26.2655818,18.7247951 20.2329032,24.7574737 20.2329032,32.172973 C20.2329032,39.5884722 26.2655818,45.6217 33.6810811,45.6217 C41.0965803,45.6217 47.129259,39.5884722 47.129259,32.172973 C47.129259,24.7574737 41.0965803,18.7247951 33.6810811,18.7247951 Z M33.6810811,46.7513514 C25.6422691,46.7513514 19.1027027,40.2117849 19.1027027,32.172973 C19.1027027,24.1347102 25.6422691,17.5945946 33.6810811,17.5945946 C41.7193439,17.5945946 48.2594595,24.1347102 48.2594595,32.172973 C48.2594595,40.2117849 41.7193439,46.7513514 33.6810811,46.7513514 L33.6810811,46.7513514 Z"
            id="Fill-128" fill="#F2BA49"></path>
          <polygon id="Fill-129" fill="#F2BA49"
                   points="26.6432432 29.1567568 41.7243243 29.1567568 41.7243243 28.1513514 26.6432432 28.1513514"></polygon>
          <polygon id="Fill-130" fill="#F2BA49"
                   points="26.6432432 32.6756757 41.7243243 32.6756757 41.7243243 31.6702703 26.6432432 31.6702703"></polygon>
          <polygon id="Fill-131" fill="#F2BA49"
                   points="26.6432432 37.2 41.7243243 37.2 41.7243243 36.1945946 26.6432432 36.1945946"></polygon>
          <path
            d="M4.52432432,14.8297297 C4.52432432,15.8014541 3.73658919,16.5891892 2.76486486,16.5891892 C1.79314054,16.5891892 1.00540541,15.8014541 1.00540541,14.8297297 C1.00540541,13.8580054 1.79314054,13.0702703 2.76486486,13.0702703 C3.73658919,13.0702703 4.52432432,13.8580054 4.52432432,14.8297297"
            id="Fill-132" fill="#F2BA49"></path>
          <polyline id="Fill-133" fill="#F2BA49"
                    points="56.3027027 3.97876397 54.3347495 3.97876397 54.3347495 2.01081081 53.2436288 2.01081081 53.2436288 3.97876397 51.2756757 3.97876397 51.2756757 5.06988467 53.2436288 5.06988467 53.2436288 7.03783784 54.3347495 7.03783784 54.3347495 5.06988467 56.3027027 5.06988467 56.3027027 3.97876397"></polyline>
          <path
            d="M6.53513514,49.265122 C6.53513514,50.375067 5.63452643,51.2756757 4.52406715,51.2756757 C3.41412222,51.2756757 2.51351351,50.375067 2.51351351,49.265122 C2.51351351,48.1546628 3.41412222,47.2540541 4.52406715,47.2540541 C5.63452643,47.2540541 6.53513514,48.1546628 6.53513514,49.265122"
            id="Fill-134" fill="#FFD34D"></path>
          <polyline id="Fill-135" fill="#FFD34D"
                    points="5.02702703 40.6760613 3.05852721 40.6760613 3.05852721 38.7081081 1.96795316 38.7081081 1.96795316 40.6760613 0 40.6760613 0 41.767182 1.96795316 41.767182 1.96795316 43.7351351 3.05852721 43.7351351 3.05852721 41.767182 5.02702703 41.767182 5.02702703 40.6760613"></polyline>
          <path
            d="M67.3621622,37.9543159 C67.3621622,38.648295 66.7995291,39.2108108 66.1054054,39.2108108 C65.4112817,39.2108108 64.8486486,38.648295 64.8486486,37.9543159 C64.8486486,37.2598131 65.4112817,36.6972973 66.1054054,36.6972973 C66.7995291,36.6972973 67.3621622,37.2598131 67.3621622,37.9543159"
            id="Fill-136" fill="#FFD34D"></path>
          <path
            d="M64.3459459,51.0245837 C64.3459459,52.2738181 63.3327588,53.2864865 62.0835244,53.2864865 C60.83429,53.2864865 59.8216216,52.2738181 59.8216216,51.0245837 C59.8216216,49.7748306 60.83429,48.7621622 62.0835244,48.7621622 C63.3327588,48.7621622 64.3459459,49.7748306 64.3459459,51.0245837"
            id="Fill-137" fill="#F2BA49"></path>
          <path
            d="M28.6540541,1.00540541 C28.6540541,1.56099864 28.2037567,2.01081081 27.6486486,2.01081081 C27.0935406,2.01081081 26.6432432,1.56099864 26.6432432,1.00540541 C26.6432432,0.450297402 27.0935406,0 27.6486486,0 C28.2037567,0 28.6540541,0.450297402 28.6540541,1.00540541"
            id="Fill-138" fill="#FFD34D"></path>
        </g>
      </g>
    </g>
  </g>
</svg>
