<?xml version="1.0" encoding="UTF-8"?>
<svg width="73px" height="93px" viewBox="0 0 73 93" version="1.1" xmlns="http://www.w3.org/2000/svg"
>
  <!-- Generator: Sketch 46.2 (44496) - http://www.bohemiancoding.com/sketch -->
  <title>badge 001</title>
  <desc>Created with Sketch.</desc>
  <defs></defs>
  <g id="Project-Dashboard" stroke="none" stroke-width="1" fill="none" fill-rule="evenodd">
    <g id="Desktop-Copy-7" transform="translate(-343.000000, -147.000000)">
      <g id="Group-3" transform="translate(161.000000, 131.000000)">
        <g id="badge-001" transform="translate(182.000000, 16.000000)">
          <polyline id="Fill-110" fill="#005EB3"
                    points="26.5276483 28 5 83.0180189 22.1605919 76.7016063 30.4723517 93 52 37.9819811 26.5276483 28"></polyline>
          <polyline id="Fill-111" fill="#0072D9"
                    points="43.4721161 28 65 83.0180189 47.8397347 76.7016063 39.5278839 93 18 37.9819811 43.4721161 28"></polyline>
          <path
            d="M66.6548325,30.3377968 L66.6548325,30.3377968 C65.1986623,29.2648543 64.8746683,27.220443 65.9280352,25.7498473 C67.2255565,23.938774 66.3972856,21.3885395 64.2828255,20.6859502 C62.5660179,20.1157402 61.6264867,18.2717008 62.1740315,16.5471634 C62.8482893,14.4239425 61.2726173,12.2548783 59.0448366,12.2399405 C57.2358271,12.2275783 55.7719305,10.7641939 55.7600834,8.9551809 C55.7451456,6.72739583 53.5760856,5.15172079 51.4523538,5.8259799 C49.7283348,6.37352569 47.884299,5.43347765 47.3140902,3.71718173 C46.6109871,1.60271752 44.0612727,0.774445054 42.2502029,2.07196889 C40.7796101,3.12533779 38.7352028,2.80134315 37.6622624,1.34517011 C36.3405316,-0.448390036 33.6594684,-0.448390036 32.3377376,1.34517011 C31.2647972,2.80134315 29.220905,3.12533779 27.7503122,2.07196889 C25.9387273,0.774445054 23.3890129,1.60271752 22.6864249,3.71718173 C22.115701,5.43347765 20.2716652,6.37352569 18.5476462,5.8259799 C16.4244295,5.15172079 14.2553695,6.72739583 14.2404317,8.9551809 C14.2280695,10.7641939 12.764688,12.2275783 10.9556785,12.2399405 C8.72789779,12.2548783 7.15171074,14.4239425 7.82596853,16.5471634 C8.37351325,18.2717008 7.43398214,20.1157402 5.71717448,20.6859502 C3.60322948,21.3885395 2.77444354,23.938774 4.07196485,25.7498473 C5.12533169,27.220443 4.80185278,29.2648543 3.34516748,30.3377968 C1.55161084,31.6595301 1.55161084,34.3405986 3.34516748,35.6618168 C4.80185278,36.7352744 5.12533169,38.7791707 4.07196485,40.2497664 C2.77444354,42.0608397 3.60322948,44.6110741 5.71717448,45.3136635 C7.43398214,45.8838734 8.37351325,47.728428 7.82596853,49.4524503 C7.15171074,51.5756711 8.72789779,53.7447354 10.9556785,53.7596731 C12.764688,53.7720354 14.2280695,55.2354198 14.2404317,57.0444328 C14.2553695,59.2722179 16.4244295,60.848408 18.5476462,60.1741489 C20.2716652,59.6266031 22.115701,60.566136 22.6864249,62.282947 C23.3890129,64.3968962 25.9387273,65.2256837 27.7503122,63.9281599 C29.220905,62.8742759 31.2647972,63.1982705 32.3377376,64.6544436 C33.6594684,66.4485188 36.3405316,66.4485188 37.6622624,64.6544436 C38.7352028,63.1982705 40.7796101,62.8742759 42.2502029,63.9281599 C44.0612727,65.2256837 46.6109871,64.3968962 47.3140902,62.282947 C47.884299,60.566136 49.7283348,59.6266031 51.4523538,60.1741489 C53.5760856,60.848408 55.7451456,59.2722179 55.7600834,57.0444328 C55.7719305,55.2354198 57.2358271,53.7720354 59.0448366,53.7596731 C61.2726173,53.7447354 62.8482893,51.5756711 62.1740315,49.4524503 C61.6264867,47.728428 62.5660179,45.8838734 64.2828255,45.3136635 C66.3972856,44.6110741 67.2255565,42.0608397 65.9280352,40.2497664 C64.8746683,38.7791707 65.1986623,36.7352744 66.6548325,35.6618168 C68.4483892,34.3405986 68.4483892,31.6595301 66.6548325,30.3377968"
            id="Fill-112" fill="#F2BA49"></path>
          <path
            d="M62,33.4997435 C62,18.3120085 49.6879915,6 34.5002565,6 C19.3120085,6 7,18.3120085 7,33.4997435 C7,48.6874784 19.3120085,61 34.5002565,61 C49.6879915,61 62,48.6874784 62,33.4997435"
            id="Fill-113" fill="#FFD34D"></path>
          <path
            d="M35.0002625,10.8215899 C22.791997,10.8215899 12.8603471,20.5463304 12.8603471,32.499743 C12.8603471,44.4531556 22.791997,54.1784101 35.0002625,54.1784101 C47.208003,54.1784101 57.1396529,44.4531556 57.1396529,32.499743 C57.1396529,20.5463304 47.208003,10.8215899 35.0002625,10.8215899 Z M35.0002625,56 C21.7668114,56 11,45.4574972 11,32.499743 C11,19.5419888 21.7668114,9 35.0002625,9 C48.2337135,9 59,19.5419888 59,32.499743 C59,45.4574972 48.2337135,56 35.0002625,56 L35.0002625,56 Z"
            id="Fill-114" fill="#F2BA49"></path>
          <polygon id="Fill-115" fill="#F2BA49" points="22 28 46 28 46 26 22 26"></polygon>
          <polygon id="Fill-116" fill="#F2BA49" points="22 34 46 34 46 32 22 32"></polygon>
          <polygon id="Fill-117" fill="#F2BA49" points="22 40 46 40 46 38 22 38"></polygon>
          <polyline id="Fill-118" fill="#F2BA49"
                    points="4.25916343 8.74033348 4.25916343 6 2.74083657 6 2.74083657 8.74033348 0 8.74033348 0 10.2591634 2.74083657 10.2591634 2.74083657 13 4.25916343 13 4.25916343 10.2591634 7 10.2591634 7 8.74033348 4.25916343 8.74033348"></polyline>
          <polyline id="Fill-119" fill="#FFD34D"
                    points="70.6509177 19.3490823 70.6509177 17 69.3490823 17 69.3490823 19.3490823 67 19.3490823 67 20.6509177 69.3490823 20.6509177 69.3490823 23 70.6509177 23 70.6509177 20.6509177 73 20.6509177 73 19.3490823 70.6509177 19.3490823"></polyline>
          <path
            d="M67,60.500278 C67,61.8807962 65.8807962,63 64.499722,63 C63.1192038,63 62,61.8807962 62,60.500278 C62,59.1192038 63.1192038,58 64.499722,58 C65.8807962,58 67,59.1192038 67,60.500278"
            id="Fill-120" fill="#FFD34D"></path>
          <path
            d="M8,59.5 C8,60.3285251 7.32863393,61 6.50024307,61 C5.67185221,61 5,60.3285251 5,59.5 C5,58.6714749 5.67185221,58 6.50024307,58 C7.32863393,58 8,58.6714749 8,59.5"
            id="Fill-121" fill="#FFD34D"></path>
          <path
            d="M6,52.5002614 C6,53.8808155 4.88069845,55 3.5,55 C2.11930155,55 1,53.8808155 1,52.5002614 C1,51.1191845 2.11930155,50 3.5,50 C4.88069845,50 6,51.1191845 6,52.5002614"
            id="Fill-122" fill="#F2BA49"></path>
          <path
            d="M69,13 C69,14.1046406 68.1046406,15 67,15 C65.8953594,15 65,14.1046406 65,13 C65,11.8953594 65.8953594,11 67,11 C68.1046406,11 69,11.8953594 69,13"
            id="Fill-123" fill="#F2BA49"></path>
        </g>
      </g>
    </g>
  </g>
</svg>
