<?xml version="1.0" encoding="UTF-8"?>
<svg width="70px" height="98px" viewBox="0 0 70 98" version="1.1" xmlns="http://www.w3.org/2000/svg"
>
  <!-- Generator: Sketch 46.2 (44496) - http://www.bohemiancoding.com/sketch -->
  <title>Group 4 Copy</title>
  <desc>Created with Sketch.</desc>
  <defs></defs>
  <g id="Project-Dashboard" stroke="none" stroke-width="1" fill="none" fill-rule="evenodd">
    <g id="Desktop-Copy-7" transform="translate(-341.000000, -579.000000)">
      <g id="Group-3-Copy-3" transform="translate(161.000000, 562.250000)">
        <g id="Group-4-Copy" transform="translate(180.000000, 17.000000)">
          <polygon id="Fill-3-Copy" fill="#005EB3"
                   transform="translate(37.775181, 71.110148) rotate(-6.000000) translate(-37.775181, -71.110148) "
                   points="55.0342056 94.012936 37.775181 76.7539114 20.5161565 94.012936 20.5161565 48.2073593 55.0342056 48.2073593"></polygon>
          <polyline id="Fill-3" fill="#0072D9"
                    transform="translate(34.585563, 71.110148) rotate(4.000000) translate(-34.585563, -71.110148) "
                    points="51.8445873 48.2073593 51.8445873 94.012936 34.5855628 76.7539114 17.3265382 94.012936 17.3265382 48.2073593 51.8445873 48.2073593"></polyline>
          <path
            d="M68.1398156,31.3140776 C68.1398156,14.2501513 54.3069727,0.417839996 37.243578,0.417839996 C20.1801833,0.417839996 6.3473404,14.2501513 6.3473404,31.3140776 C6.3473404,48.3774722 20.1801833,62.2097836 37.243578,62.2097836 C54.3069727,62.2097836 68.1398156,48.3774722 68.1398156,31.3140776"
            id="Fill-4" fill="#FFD34D"></path>
          <path
            d="M37.243578,7.00227536 C23.8381439,7.00227536 12.9317758,17.9086435 12.9317758,31.3140776 C12.9317758,44.7195117 23.8381439,55.6253482 37.243578,55.6253482 C50.6490121,55.6253482 61.5548486,44.7195117 61.5548486,31.3140776 C61.5548486,17.9086435 50.6490121,7.00227536 37.243578,7.00227536 Z M37.243578,57.6682987 C22.7116771,57.6682987 10.8888252,45.8454469 10.8888252,31.3140776 C10.8888252,16.7821766 22.7116771,4.95932484 37.243578,4.95932484 C51.7749473,4.95932484 63.5977991,16.7821766 63.5977991,31.3140776 C63.5977991,45.8454469 51.7749473,57.6682987 37.243578,57.6682987 L37.243578,57.6682987 Z"
            id="Fill-5" fill="#F2BA49"></path>
          <polyline id="Fill-6" fill="#F2BA49"
                    points="37.243578 14.2453669 41.0753728 26.0395121 53.4766087 26.0395121 43.444196 33.3283215 47.2759907 45.1229984 37.243578 37.8336574 27.2106337 45.1229984 31.04296 33.3283215 21.0100157 26.0395121 33.4112516 26.0395121 37.243578 14.2453669"></polyline>
          <path
            d="M11.890897,59.4380053 C11.890897,60.9690221 10.6501355,62.2097836 9.1191187,62.2097836 C7.58810192,62.2097836 6.3473404,60.9690221 6.3473404,59.4380053 C6.3473404,57.9075201 7.58810192,56.666227 9.1191187,56.666227 C10.6501355,56.666227 11.890897,57.9075201 11.890897,59.4380053"
            id="Fill-7" fill="#FFD34D"></path>
          <path
            d="M4.21401737,45.1777535 C4.21401737,46.2319223 3.35919967,47.08674 2.30503082,47.08674 C1.25086197,47.08674 0.396575874,46.2319223 0.396575874,45.1777535 C0.396575874,44.1235847 1.25086197,43.2692986 2.30503082,43.2692986 C3.35919967,43.2692986 4.21401737,44.1235847 4.21401737,45.1777535"
            id="Fill-8" fill="#F2BA49"></path>
          <polyline id="Fill-9" fill="#FFD34D"
                    points="34.5191124 93.2155314 31.6415451 93.2155314 31.6415451 90.3374325 30.0467359 90.3374325 30.0467359 93.2155314 27.168637 93.2155314 27.168637 94.8103405 30.0467359 94.8103405 30.0467359 97.6879078 31.6415451 97.6879078 31.6415451 94.8103405 34.5191124 94.8103405 34.5191124 93.2155314"></polyline>
          <path
            d="M38.3211374,88.2604594 C38.3211374,89.1849171 37.5721087,89.9339458 36.647651,89.9339458 C35.7231933,89.9339458 34.9741646,89.1849171 34.9741646,88.2604594 C34.9741646,87.3360017 35.7231933,86.586973 36.647651,86.586973 C37.5721087,86.586973 38.3211374,87.3360017 38.3211374,88.2604594"
            id="Fill-10" fill="#F2BA49"></path>
          <path
            d="M10.1105584,6.40953796 C10.1105584,7.66412115 9.09360175,8.68054618 7.83955016,8.68054618 C6.58549857,8.68054618 5.56854194,7.66412115 5.56854194,6.40953796 C5.56854194,5.15548637 6.58549857,4.13906134 7.83955016,4.13906134 C9.09360175,4.13906134 10.1105584,5.15548637 10.1105584,6.40953796"
            id="Fill-11" fill="#FFD34D"></path>
          <path
            d="M64.3994565,2.27845067 C64.3994565,3.30603936 63.5664346,4.13906134 62.5388459,4.13906134 C61.5112572,4.13906134 60.6782352,3.30603936 60.6782352,2.27845067 C60.6782352,1.25086197 61.5112572,0.417839996 62.5388459,0.417839996 C63.5664346,0.417839996 64.3994565,1.25086197 64.3994565,2.27845067"
            id="Fill-12" fill="#FFD34D"></path>
          <polyline id="Fill-13" fill="#F2BA49"
                    points="69.5496269 9.82402434 67.6358559 9.82402434 67.6358559 7.91025337 66.5753078 7.91025337 66.5753078 9.82402434 64.6610052 9.82402434 64.6610052 10.885104 66.5753078 10.885104 66.5753078 12.798875 67.6358559 12.798875 67.6358559 10.885104 69.5496269 10.885104 69.5496269 9.82402434"></polyline>
          <path
            d="M62.0960205,80.879151 C62.0960205,81.7111098 61.4214163,82.3851825 60.5894575,82.3851825 C59.7574987,82.3851825 59.083426,81.7111098 59.083426,80.879151 C59.083426,80.0471923 59.7574987,79.3731196 60.5894575,79.3731196 C61.4214163,79.3731196 62.0960205,80.0471923 62.0960205,80.879151"
            id="Fill-14" fill="#F2BA49"></path>
        </g>
      </g>
    </g>
  </g>
</svg>
