<?xml version="1.0" encoding="UTF-8"?>
<svg width="74px" height="85px" viewBox="0 0 74 85" version="1.1" xmlns="http://www.w3.org/2000/svg"
>
  <!-- Generator: Sketch 46.2 (44496) - http://www.bohemiancoding.com/sketch -->
  <title>badge 003</title>
  <desc>Created with Sketch.</desc>
  <defs></defs>
  <g id="Project-Dashboard" stroke="none" stroke-width="1" fill="none" fill-rule="evenodd">
    <g id="Desktop-Copy-7" transform="translate(-339.000000, -296.000000)">
      <g id="Group-3-Copy" transform="translate(161.000000, 274.750000)">
        <g id="badge-003" transform="translate(178.000000, 22.000000)">
          <polygon id="Fill-63" fill="#005EB3"
                   points="16.3006376 13.04051 57.2850977 13.04051 57.2850977 0 16.3006376 0"></polygon>
          <polyline id="Fill-64" fill="#0072D9"
                    points="73.1200027 8.83294255 45.6468083 59.1480277 29.3411476 50.3155449 56.814342 0 73.1200027 8.83294255"></polyline>
          <polyline id="Fill-65" fill="#0072D9"
                    points="0 8.83294255 27.4731944 59.1480277 43.7788551 50.3155449 16.3056607 0 0 8.83294255"></polyline>
          <path
            d="M61.0109577,56.8191345 C61.0109577,43.186651 49.959746,32.1355426 36.3271351,32.1355426 C22.6945242,32.1355426 11.6433125,43.186651 11.6433125,56.8191345 C11.6433125,70.4516181 22.6945242,81.5031878 36.3271351,81.5031878 C49.959746,81.5031878 61.0109577,70.4516181 61.0109577,56.8191345"
            id="Fill-66" fill="#FFD34D"></path>
          <path
            d="M36.5600014,37.5039478 C25.7807387,37.5039478 17.0117357,46.273319 17.0117357,57.0519993 C17.0117357,67.8311439 25.7807387,76.6005151 36.5600014,76.6005151 C47.339264,76.6005151 56.108267,67.8311439 56.108267,57.0519993 C56.108267,46.273319 47.339264,37.5039478 36.5600014,37.5039478 Z M36.5600014,78.2430603 C24.8754255,78.2430603 15.3691726,68.7369114 15.3691726,57.0519993 C15.3691726,45.3675515 24.8754255,35.8614026 36.5600014,35.8614026 C48.2445772,35.8614026 57.7508302,45.3675515 57.7508302,57.0519993 C57.7508302,68.7369114 48.2445772,78.2430603 36.5600014,78.2430603 L36.5600014,78.2430603 Z"
            id="Fill-67" fill="#F2BA49"></path>
          <polyline id="Fill-68" fill="#F2BA49"
                    points="36.7928676 43.3131226 39.8712907 52.7414299 49.8333777 52.7414299 41.7739111 58.568638 44.8523342 67.9969452 36.7928676 62.1697372 28.7334011 67.9969452 31.8118241 58.568638 23.7523576 52.7414299 33.7144445 52.7414299 36.7928676 43.3131226"></polyline>
          <polyline id="Fill-69" fill="#F2BA49"
                    points="56.1297705 79.86412 56.1297705 77.3115953 54.7150335 77.3115953 54.7150335 79.86412 52.1620402 79.86412 52.1620402 81.2788569 54.7150335 81.2788569 54.7150335 83.8318503 56.1297705 83.8318503 56.1297705 81.2788569 58.6822952 81.2788569 58.6822952 79.86412 56.1297705 79.86412"></polyline>
          <polyline id="Fill-70" fill="#FFD34D"
                    points="9.17154952 39.7300799 9.17154952 37.7243326 8.06055304 37.7243326 8.06055304 39.7300799 6.05452252 39.7300799 6.05452252 40.8411774 8.06055304 40.8411774 8.06055304 42.8473901 9.17154952 42.8473901 9.17154952 40.8411774 11.17758 40.8411774 11.17758 39.7300799 9.17154952 39.7300799"></polyline>
          <path
            d="M7.45172003,54.0247438 C7.45172003,54.7963609 6.82626468,55.4221677 6.05452252,55.4221677 C5.28278037,55.4221677 4.65732502,54.7963609 4.65732502,54.0247438 C4.65732502,53.2531267 5.28278037,52.6277727 6.05452252,52.6277727 C6.82626468,52.6277727 7.45172003,53.2531267 7.45172003,54.0247438"
            id="Fill-71" fill="#F2BA49"></path>
          <path
            d="M12.5747775,71.0244373 C12.5747775,71.924515 11.8449189,72.6542702 10.9447138,72.6542702 C10.0445087,72.6542702 9.31465003,71.924515 9.31465003,71.0244373 C9.31465003,70.123898 10.0445087,69.3941427 10.9447138,69.3941427 C11.8449189,69.3941427 12.5747775,70.123898 12.5747775,71.0244373"
            id="Fill-72" fill="#FFD34D"></path>
          <path
            d="M17.2321026,77.0789515 C17.2321026,78.2361887 16.2938656,79.1745253 15.1363063,79.1745253 C13.978747,79.1745253 13.04051,78.2361887 13.04051,77.0789515 C13.04051,75.9212693 13.978747,74.9829328 15.1363063,74.9829328 C16.2938656,74.9829328 17.2321026,75.9212693 17.2321026,77.0789515"
            id="Fill-73" fill="#F2BA49"></path>
          <path
            d="M71.2570727,57.0522314 C71.2570727,58.4670814 70.110394,59.6137602 68.695544,59.6137602 C67.280694,59.6137602 66.1340152,58.4670814 66.1340152,57.0522314 C66.1340152,55.6373814 67.280694,54.4907027 68.695544,54.4907027 C70.110394,54.4907027 71.2570727,55.6373814 71.2570727,57.0522314"
            id="Fill-74" fill="#FFD34D"></path>
        </g>
      </g>
    </g>
  </g>
</svg>
