<?xml version="1.0" encoding="UTF-8"?>
<svg width="68px" height="87px" viewBox="0 0 68 87" version="1.1" xmlns="http://www.w3.org/2000/svg"
>
  <!-- Generator: Sketch 46.2 (44496) - http://www.bohemiancoding.com/sketch -->
  <title>Group 5</title>
  <desc>Created with Sketch.</desc>
  <defs></defs>
  <g id="Project-Dashboard" stroke="none" stroke-width="1" fill="none" fill-rule="evenodd">
    <g id="Desktop-Copy-7" transform="translate(-345.000000, -725.000000)">
      <g id="Group-3-Copy-4" transform="translate(161.000000, 706.000000)">
        <g id="Group-5" transform="translate(184.000000, 19.000000)">
          <polygon id="Fill-75" fill="#FFD34D"
                   points="31.2524272 69.6076019 36.7756602 69.6076019 36.7756602 50.2572816 31.2524272 50.2572816"></polygon>
          <path
            d="M23.2387136,43.0299466 L10.5346019,43.0299466 C4.72545146,43.0299466 0,38.3040728 0,32.4953447 C0,26.6866165 4.72545146,21.961165 10.5346019,21.961165 L18.1090922,21.961165 L18.1090922,27.4121796 L10.5346019,27.4121796 C7.73159709,27.4121796 5.45101456,29.6923398 5.45101456,32.4953447 C5.45101456,35.2983495 7.73159709,37.578932 10.5346019,37.578932 L23.2387136,37.578932 L23.2387136,43.0299466"
            id="Fill-76" fill="#F2BA49"></path>
          <path
            d="M44.7669903,43.0299466 L57.4711019,43.0299466 C63.2802524,43.0299466 68.0057039,38.3040728 68.0057039,32.4953447 C68.0057039,26.6866165 63.2802524,21.961165 57.4711019,21.961165 L49.8966117,21.961165 L49.8966117,27.4121796 L57.4711019,27.4121796 C60.2741068,27.4121796 62.5546893,29.6923398 62.5546893,32.4953447 C62.5546893,35.2983495 60.2741068,37.578932 57.4711019,37.578932 L44.7669903,37.578932 L44.7669903,43.0299466"
            id="Fill-77" fill="#F2BA49"></path>
          <path
            d="M28.7184466,42.6553398 L28.7184466,48.4019854 C28.7184466,50.4832282 30.4056553,52.1708592 32.4868981,52.1708592 L35.6020049,52.1708592 C37.6832476,52.1708592 39.3704563,50.4832282 39.3704563,48.4019854 L39.3704563,42.6553398 L28.7184466,42.6553398"
            id="Fill-78" fill="#F2BA49"></path>
          <path
            d="M13.5145631,19.8495146 L13.5145631,27.7023204 C13.5145631,39.0376602 22.7036214,48.2271408 34.0393835,48.2271408 C45.3751456,48.2271408 54.5642039,39.0376602 54.5642039,27.7023204 L54.5642039,19.8495146 L13.5145631,19.8495146"
            id="Fill-79" fill="#FFD34D"></path>
          <polygon id="Fill-80" fill="#F2BA49"
                   points="10.1359223 19.7705388 58.0915049 19.7705388 58.0915049 14.3592233 10.1359223 14.3592233"></polygon>
          <path
            d="M40.0630777,69.684466 L27.932068,69.684466 C24.8676408,69.684466 22.3834951,72.1686117 22.3834951,75.2330388 L45.6116505,75.2330388 C45.6116505,72.1686117 43.1275049,69.684466 40.0630777,69.684466"
            id="Fill-81" fill="#F2BA49"></path>
          <polygon id="Fill-82" fill="#FFD34D"
                   points="18.1601942 86.8040388 49.6938932 86.8040388 49.6938932 75.1747573 18.1601942 75.1747573"></polygon>
          <polygon id="Fill-83" fill="#F2BA49"
                   points="28.2961165 83.4139951 39.8979466 83.4139951 39.8979466 78.131068 28.2961165 78.131068"></polygon>
          <polyline id="Fill-84" fill="#F2BA49"
                    points="33.8979029 23.2281553 36.542534 28.5866796 42.456 29.445699 38.1769515 33.6166311 39.187165 39.5064466 33.8979029 36.7258252 28.6086408 39.5064466 29.6188544 33.6166311 25.3398058 29.445699 31.2532718 28.5866796 33.8979029 23.2281553"></polyline>
          <polyline id="Fill-85" fill="#FFD34D"
                    points="52.806466 47.7672233 50.6513155 47.7672233 50.6513155 45.6116505 49.4565437 45.6116505 49.4565437 47.7672233 47.3009709 47.7672233 47.3009709 48.9615728 49.4565437 48.9615728 49.4565437 51.1171456 50.6513155 51.1171456 50.6513155 48.9615728 52.806466 48.9615728 52.806466 47.7672233"></polyline>
          <polyline id="Fill-86" fill="#F2BA49"
                    points="22.4785194 53.1054757 19.6303252 53.1054757 19.6303252 50.2572816 18.0520777 50.2572816 18.0520777 53.1054757 15.2038835 53.1054757 15.2038835 54.6837233 18.0520777 54.6837233 18.0520777 57.5319175 19.6303252 57.5319175 19.6303252 54.6837233 22.4785194 54.6837233 22.4785194 53.1054757"></polyline>
          <path
            d="M15.2925728,58.9593932 C15.2925728,59.8002524 14.610932,60.4818932 13.7700728,60.4818932 C12.9292136,60.4818932 12.2475728,59.8002524 12.2475728,58.9593932 C12.2475728,58.118534 12.9292136,57.4368932 13.7700728,57.4368932 C14.610932,57.4368932 15.2925728,58.118534 15.2925728,58.9593932"
            id="Fill-87" fill="#FFD34D"></path>
          <path
            d="M5.742,18.4972136 C5.742,19.6163883 4.83483495,20.5235534 3.71566019,20.5235534 C2.59648544,20.5235534 1.68932039,19.6163883 1.68932039,18.4972136 C1.68932039,17.3780388 2.59648544,16.4708738 3.71566019,16.4708738 C4.83483495,16.4708738 5.742,17.3780388 5.742,18.4972136"
            id="Fill-88" fill="#FFD34D"></path>
          <path
            d="M28.8954029,1.77800971 C28.8954029,2.75950485 28.099733,3.55559709 27.1178155,3.55559709 C26.1358981,3.55559709 25.3398058,2.75950485 25.3398058,1.77800971 C25.3398058,0.796092233 26.1358981,0 27.1178155,0 C28.099733,0 28.8954029,0.796092233 28.8954029,1.77800971"
            id="Fill-89" fill="#F2BA49"></path>
          <path
            d="M45.0664223,9.65235437 C45.0664223,10.7846214 44.1482767,11.7023447 43.0160097,11.7023447 C41.8837427,11.7023447 40.9660194,10.7846214 40.9660194,9.65235437 C40.9660194,8.52008738 41.8837427,7.60194175 43.0160097,7.60194175 C44.1482767,7.60194175 45.0664223,8.52008738 45.0664223,9.65235437"
            id="Fill-90" fill="#FFD34D"></path>
          <path
            d="M50.760699,8.06481553 C50.760699,9.02012621 49.9861456,9.79467961 49.030835,9.79467961 C48.0755243,9.79467961 47.3009709,9.02012621 47.3009709,8.06481553 C47.3009709,7.10950485 48.0755243,6.33495146 49.030835,6.33495146 C49.9861456,6.33495146 50.760699,7.10950485 50.760699,8.06481553"
            id="Fill-91" fill="#F2BA49"></path>
        </g>
      </g>
    </g>
  </g>
</svg>
